<?xml version="1.0" encoding="utf-8"?>
<!-- Generator: Adobe Illustrator 17.0.0, SVG Export Plug-In . SVG Version: 6.00 Build 0)  -->
<!DOCTYPE svg PUBLIC "-//W3C//DTD SVG 1.1//EN" "http://www.w3.org/Graphics/SVG/1.1/DTD/svg11.dtd">
<svg version="1.1" id="Layer_1" xmlns="http://www.w3.org/2000/svg" xmlns:xlink="http://www.w3.org/1999/xlink" x="0px" y="0px"
	 width="100px" height="100px" viewBox="0 0 100 100" enable-background="new 0 0 100 100" xml:space="preserve">
<linearGradient id="SVGID_1_" gradientUnits="userSpaceOnUse" x1="-282.5357" y1="144.2489" x2="-223.4581" y2="144.2489" gradientTransform="matrix(1 0 0 -1 304 195)">
	<stop  offset="0" style="stop-color:#52B146"/>
	<stop  offset="1" style="stop-color:#AAF4FF"/>
</linearGradient>
<path fill="#020202" stroke="url(#SVGID_1_)" stroke-miterlimit="10" d="M79.57,34.97c-2.04-8.61-13.28-14.82-20.71-11.47h-0.01
	l-0.04,0.07c-0.15,3.18,1.99,3.95,4.51,3.97c5.54,0.03,10.24,1.75,11.99,7.35c1.88,6.06,0.22,11.51-4.67,15.8
	c-3.28,2.89-7.19,4.48-11.41,5.63c3.27-2.44,6.39-4.95,8.01-8.88c2.06-4.96,1.02-6.73-4.28-6.77c-3.86-0.04-7.73-0.01-11.6-0.04
	c-0.54,0.01-1.08,0-1.61,0c-1.29-0.01-2.72,0.07-3.13-1.63c-0.21-0.89-0.41-1.91,0.24-2.62c0.94-0.99,1.64,0.07,2.28,0.58
	c2.18,1.74,4.54,3.01,7.4,3.04c0.76,0.01,1.69,0.16,2.1-0.63c0.53-1.03-0.29-1.74-1-2.27c-1.34-1-2.77-1.87-4.56-3.06
	c3.61-0.21,6.85-0.78,9.51-2.93c0.46-0.37,0.98-0.99,0.99-1.52c0.03-0.97-0.93-1.11-1.68-1.24c-2.74-0.52-5.35,0.51-8.46,0.9
	c1.7-1.79,3.19-3.37,4.66-4.93c0.03-0.03,0.06-0.07,0.09-0.1l1.76-4.41c0.29-1.09,1.05-2.38-0.1-3.24
	c-1.12-0.85-2.21,0.17-3.21,0.67c-3.57,1.82-6.2,4.61-8.22,8.17c1.94-5.69,0.88-11.07-1.12-16.36c-0.35-0.91-0.67-2.19-2.01-2.01
	c-1.02,0.13-1.23,1.21-1.55,2.07c-1.76,4.72-2.61,9.56-1.84,14.75c-1.81-2.82-4.2-4.79-6.93-6.32c-1.15-0.65-2.46-2.05-3.83-0.78
	c-1.06,0.98-0.22,2.42,0.04,3.68c0.7,3.17,3.34,5.26,4.96,8.3c-2.52-0.13-4.56-0.3-6.61-0.31c-0.74-0.01-1.66,0.22-1.9,1.09
	c-0.26,0.91,0.55,1.36,1.19,1.8c2.66,1.86,5.75,2.52,9.33,2.68c-1.97,1.26-3.51,2.18-4.99,3.22c-0.62,0.43-1.21,1.09-0.85,1.98
	c0.36,0.9,1.24,0.78,2,0.82c2.92,0.14,5.19-1.38,7.46-2.94c0.71-0.49,1.45-1.4,2.39-0.73c0.38,0.27,0.43,1.16,0.45,1.77
	c0.04,1.12-0.33,2.11-1.58,2.34c-0.88,0.17-1.8,0.18-2.7,0.19h-0.01c-4.41,0.02-8.83-0.03-13.25,0.03
	c-4.85,0.06-6.11,1.78-4.35,6.32c2.4,6.24,7.65,9.21,13.61,11.26c1.62,0.56,3.79,0.38,4.29,2.74c0.55,2.53-1.46,3.29-2.98,4.47
	c-5.03,3.87-6.68,10-3.01,14.3c2.82,3.29,3.31,5.24-0.31,8c-1.44,1.09-2.42,3.26-1.34,5.29c0.98,1.84,2.94,1.36,4.58,1.37
	c5.06,0.06,10.13,0.05,15.19,0.02c1.66-0.01,3.58,0.25,4.34-1.77c0.71-1.86-0.07-3.56-1.16-5.09c-0.84-1.22-2.04-2.04-3.37-2.56
	c-2.46-0.96-3.14-2.76-3.07-5.24c0.11-4.02,0.11-8.05,0-12.08c-0.07-2.56,0.78-4,3.41-4.79c6.09-1.83,12.02-4.08,17.58-7.29
	C77.57,51.52,81.45,42.92,79.57,34.97z M36.83,73.59c0-2.56,4.06-6.88,4.06-6.88v13.31c0,0-0.41-0.5-1.61-1.66
	C38.08,77.2,36.83,76.16,36.83,73.59z"/>
<linearGradient id="SVGID_2_" gradientUnits="userSpaceOnUse" x1="42.2146" y1="207.8048" x2="43.5846" y2="207.8048" gradientTransform="matrix(0.5951 0.0872 0.145 -0.9894 5.3961 241.6496)">
	<stop  offset="0" style="stop-color:#52B146"/>
	<stop  offset="1" style="stop-color:#3FFF86"/>
</linearGradient>
<polygon fill="url(#SVGID_2_)" points="59.956,44.47 60.771,44.589 62.161,35.107 61.346,34.988 "/>
<linearGradient id="SVGID_3_" gradientUnits="userSpaceOnUse" x1="-718.5204" y1="649.5472" x2="-700.7174" y2="649.5472" gradientTransform="matrix(0.918 -0.3966 0.3966 0.918 412.8623 -844.0515)">
	<stop  offset="0" style="stop-color:#52B146"/>
	<stop  offset="1" style="stop-color:#3FFF86"/>
</linearGradient>
<path fill="url(#SVGID_3_)" d="M24.774,29.022c-0.082-0.549,0.012-1.286-0.681-1.452c-0.676-0.163-0.969,0.51-1.326,0.937
	c-1.264,1.527-1.91,3.306-2.128,5.318c-0.235-2.963-1.774-5.198-3.717-7.203c-0.337-0.347-0.734-0.867-1.308-0.522
	c-0.433,0.262-0.322,0.793-0.299,1.244c0.127,2.49,0.694,4.855,2.058,7.058c-1.374-0.923-2.844-1.349-4.381-1.51
	c-0.653-0.072-1.522-0.447-1.893,0.394c-0.29,0.656,0.372,1.147,0.74,1.663c0.938,1.304,2.545,1.735,3.878,2.799
	c-1.168,0.435-2.127,0.758-3.059,1.155c-0.34,0.142-0.711,0.425-0.65,0.865c0.062,0.466,0.516,0.511,0.891,0.585
	c1.575,0.322,3.105,0.019,4.762-0.61c-0.648,0.955-1.167,1.677-1.632,2.436c-0.199,0.321-0.336,0.735,0,1.066
	c0.34,0.341,0.719,0.113,1.069-0.017c1.355-0.51,2.086-1.646,2.809-2.8c0.229-0.362,0.386-0.917,0.942-0.798
	c0.229,0.046,0.425,0.438,0.555,0.714c0.237,0.498,0.265,1.022-0.26,1.371c-0.369,0.251-0.782,0.435-1.191,0.617l5.008-2.163
	l-0.004-0.009c-0.242,0.11-0.487,0.211-0.731,0.316c-0.584,0.247-1.219,0.564-1.738-0.128c-0.269-0.361-0.56-0.787-0.404-1.234
	c0.229-0.635,0.759-0.29,1.147-0.185c1.33,0.363,2.65,0.479,3.957-0.069c0.345-0.144,0.799-0.259,0.828-0.701
	c0.039-0.568-0.472-0.734-0.896-0.834c-0.804-0.188-1.627-0.305-2.672-0.491c1.596-0.808,2.957-1.701,3.742-3.197
	c0.135-0.257,0.252-0.645,0.153-0.886c-0.176-0.444-0.641-0.318-1.007-0.235c-1.348,0.303-2.328,1.284-3.665,2.071
	c0.421-1.146,0.788-2.157,1.15-3.155c0.008-0.019,0.013-0.043,0.021-0.063"/>
<linearGradient id="SVGID_4_" gradientUnits="userSpaceOnUse" x1="-587.0386" y1="568.5269" x2="-528.962" y2="568.5269" gradientTransform="matrix(1 0 0 1 608 -511)">
	<stop  offset="0" style="stop-color:#FFFFB3"/>
	<stop  offset="1" style="stop-color:#F7766A"/>
</linearGradient>
<path fill="url(#SVGID_4_)" stroke="#000000" stroke-width="0.25" stroke-miterlimit="10" d="M57.806,22.568
	c-0.149,3.183,1.999,3.949,4.516,3.969c5.541,0.03,10.236,1.751,11.987,7.351c1.88,6.057,0.219,11.509-4.665,15.806
	c-3.283,2.884-7.192,4.476-11.41,5.63c3.263-2.447,6.387-4.954,8.008-8.883c2.059-4.964,1.014-6.735-4.278-6.774
	c-3.869-0.04-7.739-0.01-11.608-0.04v0.02H39.324c-4.416,0.02-8.833-0.03-13.25,0.03c-4.855,0.06-6.118,1.781-4.357,6.326
	c2.407,6.237,7.65,9.202,13.608,11.26c1.621,0.557,3.8,0.378,4.297,2.736c0.547,2.526-1.463,3.293-2.985,4.466
	c-5.023,3.879-6.675,10.007-3.004,14.304c2.815,3.293,3.303,5.242-0.318,7.998c-1.433,1.095-2.417,3.263-1.333,5.292
	c0.975,1.84,2.934,1.362,4.576,1.372c5.063,0.06,10.127,0.05,15.19,0.02c1.661-0.01,3.581,0.249,4.337-1.771
	c0.716-1.86-0.069-3.561-1.154-5.093c-0.846-1.214-2.04-2.04-3.372-2.556c-2.457-0.965-3.143-2.765-3.074-5.242
	c0.119-4.019,0.119-8.047,0-12.076c-0.069-2.566,0.786-3.999,3.412-4.794c6.088-1.83,12.026-4.078,17.587-7.291
	c7.083-4.108,10.962-12.713,9.082-20.661c-2.04-8.605-13.28-14.822-20.71-11.469h-0.01 M35.833,72.593
	c0-2.566,4.058-6.883,4.058-6.883v13.31c0,0-0.408-0.498-1.611-1.661C37.076,76.204,35.833,75.159,35.833,72.593z M49.649,87.365
	c0.547,0.129,1.105,0.656,0.945,1.761c-3.849,0.736-7.808,0.279-11.748,0.279c-0.417,0-1.084-0.378-1.194-0.726
	c-0.229-0.726,0.408-1.243,1.024-1.362c4.993-0.975,4.586-4.745,4.526-8.435c-0.079-4.307-0.02-8.605-0.02-12.912h1.372
	c0,4.039,0.15,8.067-0.04,12.096C44.308,82.311,44.486,86.131,49.649,87.365z M50.644,53.693c-3.561,0.637-6.555,1.552-6.873,6.187
	c0.04-4.248-2.317-5.282-5.64-5.998c-4.486-0.965-8.595-2.985-11.449-6.854c-0.547-0.726-1.243-1.502-0.876-2.447
	c0.398-1.054,1.482-0.915,2.368-0.915c3.71-0.01,7.431-0.01,11.151-0.01h11.032c3.263,0,6.515,0,9.768-0.01
	c2.904,0,2.616,1.423,1.443,3.173C58.95,50.709,55.14,52.888,50.644,53.693z"/>
<linearGradient id="SVGID_5_" gradientUnits="userSpaceOnUse" x1="-581.4157" y1="533.8331" x2="-545.4163" y2="533.8331" gradientTransform="matrix(1 0 0 1 608 -511)">
	<stop  offset="0" style="stop-color:#52B146"/>
	<stop  offset="1" style="stop-color:#AAF4FF"/>
</linearGradient>
<path fill="url(#SVGID_5_)" d="M58.95,18.808c0.289-1.084,1.054-2.378-0.099-3.242c-1.124-0.846-2.208,0.17-3.213,0.676
	c-3.571,1.82-6.197,4.606-8.216,8.166c1.939-5.69,0.876-11.072-1.124-16.354c-0.348-0.915-0.666-2.198-2.009-2.019
	c-1.014,0.139-1.233,1.214-1.552,2.069c-1.761,4.725-2.606,9.569-1.84,14.752c-1.811-2.815-4.197-4.784-6.923-6.316
	c-1.154-0.656-2.467-2.049-3.829-0.786c-1.064,0.985-0.229,2.427,0.04,3.681c0.696,3.173,3.333,5.262,4.954,8.306
	c-2.517-0.129-4.556-0.298-6.605-0.308c-0.746-0.01-1.661,0.219-1.9,1.084c-0.259,0.915,0.547,1.362,1.184,1.801
	c2.666,1.86,5.749,2.526,9.33,2.686c-1.969,1.253-3.511,2.178-4.984,3.213c-0.627,0.437-1.214,1.095-0.856,1.979
	c0.358,0.905,1.243,0.786,1.999,0.826c2.924,0.139,5.193-1.382,7.46-2.945c0.716-0.488,1.453-1.392,2.388-0.726
	c0.388,0.269,0.437,1.154,0.457,1.771c0.04,1.114-0.328,2.109-1.582,2.337c-0.885,0.17-1.801,0.179-2.706,0.189h11.032v-0.02
	c-0.537,0.01-1.074,0-1.611,0c-1.283-0.01-2.716,0.069-3.123-1.631c-0.209-0.885-0.408-1.91,0.239-2.616
	c0.935-0.995,1.641,0.069,2.278,0.577c2.178,1.741,4.536,3.014,7.401,3.044c0.756,0.01,1.691,0.16,2.099-0.637
	c0.527-1.024-0.289-1.741-0.995-2.268c-1.343-0.995-2.775-1.87-4.566-3.054c3.611-0.219,6.854-0.786,9.51-2.934
	c0.457-0.368,0.985-0.995,0.995-1.522c0.03-0.965-0.935-1.105-1.681-1.243c-2.746-0.518-5.351,0.518-8.465,0.905
	c1.701-1.791,3.193-3.372,4.665-4.934c0.03-0.03,0.06-0.069,0.089-0.099"/>
<path fill="#D6EEA6" d="M53.26,39.638c2.894,0.01,5.8,0,8.704,0.03C59.059,39.638,56.165,39.648,53.26,39.638z M57.835,22.538
	c0-0.01,0.01-0.03,0.01-0.04l-0.04,0.04l-0.617,0.676c0.209-0.219,0.417-0.437,0.617-0.646L57.835,22.538z M57.189,23.215
	l-0.527,0.557c0.149-0.149,0.298-0.308,0.437-0.457C57.129,23.284,57.159,23.244,57.189,23.215z"/>
<linearGradient id="SVGID_6_" gradientUnits="userSpaceOnUse" x1="-556.6821" y1="580.8742" x2="-568.3342" y2="601.0561" gradientTransform="matrix(1 0 0 1 608 -511)">
	<stop  offset="0" style="stop-color:#16A3C4"/>
	<stop  offset="1" style="stop-color:#1A9431"/>
</linearGradient>
<path fill="url(#SVGID_6_)" d="M50.594,89.125c-3.849,0.736-7.808,0.279-11.748,0.279c-0.417,0-1.084-0.378-1.194-0.726
	c-0.229-0.726,0.408-1.243,1.024-1.362c4.993-0.975,4.586-4.745,4.526-8.435c-0.079-4.307-0.02-8.605-0.02-12.912h1.372
	c0,4.039,0.15,8.067-0.04,12.096c-0.209,4.248-0.03,8.067,5.132,9.301C50.197,87.494,50.754,88.021,50.594,89.125z"/>
<linearGradient id="SVGID_7_" gradientUnits="userSpaceOnUse" x1="-559.0141" y1="547.5225" x2="-570.4317" y2="567.2983" gradientTransform="matrix(1 0 0 1 608 -511)">
	<stop  offset="0" style="stop-color:#16A3C4"/>
	<stop  offset="1" style="stop-color:#1A9431"/>
</linearGradient>
<path fill="url(#SVGID_7_)" d="M26.681,47.029c-0.547-0.726-1.243-1.502-0.876-2.447c0.398-1.054,1.482-0.915,2.368-0.915
	c3.71-0.01,7.431-0.01,11.151-0.01h11.032c3.263,0,6.515,0,9.768-0.01c2.904,0,2.616,1.423,1.443,3.173
	c-2.616,3.889-6.426,6.068-10.922,6.873c-3.561,0.637-6.555,1.552-6.873,6.187c0.04-4.248-2.317-5.282-5.64-5.998
	C33.645,52.918,29.536,50.898,26.681,47.029z"/>
<linearGradient id="SVGID_8_" gradientUnits="userSpaceOnUse" x1="-244.394" y1="161.2917" x2="-239.28" y2="160.5423" gradientTransform="matrix(1 0 0 -1 304 195)">
	<stop  offset="0" style="stop-color:#BF3000"/>
	<stop  offset="1" style="stop-color:#FFA37F"/>
</linearGradient>
<circle fill="url(#SVGID_8_)" stroke="#FF0000" stroke-width="0.25" stroke-miterlimit="10" cx="62.163" cy="34.083" r="2.584"/>
<g>
	<linearGradient id="SVGID_9_" gradientUnits="userSpaceOnUse" x1="41.6634" y1="33.4239" x2="45.4473" y2="33.4239">
		<stop  offset="0" style="stop-color:#C9FFBF"/>
		<stop  offset="1" style="stop-color:#AAF4FF"/>
	</linearGradient>
	<circle fill="url(#SVGID_9_)" cx="43.555" cy="33.424" r="1.892"/>
	<linearGradient id="SVGID_10_" gradientUnits="userSpaceOnUse" x1="38.196" y1="24.9412" x2="41.9125" y2="24.9412">
		<stop  offset="0" style="stop-color:#C9FFBF"/>
		<stop  offset="1" style="stop-color:#AAF4FF"/>
	</linearGradient>
	<circle fill="url(#SVGID_10_)" cx="40.054" cy="24.941" r="1.858"/>
	<linearGradient id="SVGID_11_" gradientUnits="userSpaceOnUse" x1="32.4928" y1="16.425" x2="34.4846" y2="16.425">
		<stop  offset="0" style="stop-color:#C9FFBF"/>
		<stop  offset="1" style="stop-color:#AAF4FF"/>
	</linearGradient>
	<circle fill="url(#SVGID_11_)" cx="33.489" cy="16.425" r="0.996"/>
	<linearGradient id="SVGID_12_" gradientUnits="userSpaceOnUse" x1="30.3303" y1="4.6408" x2="31.4898" y2="4.6408">
		<stop  offset="0" style="stop-color:#C9FFBF"/>
		<stop  offset="1" style="stop-color:#AAF4FF"/>
	</linearGradient>
	<circle fill="url(#SVGID_12_)" cx="30.91" cy="4.641" r="0.58"/>
	<linearGradient id="SVGID_13_" gradientUnits="userSpaceOnUse" x1="37.9604" y1="41.8741" x2="43.3665" y2="41.8741">
		<stop  offset="0" style="stop-color:#C9FFBF"/>
		<stop  offset="1" style="stop-color:#AAF4FF"/>
	</linearGradient>
	<circle fill="url(#SVGID_13_)" cx="40.663" cy="41.874" r="2.703"/>
</g>
</svg>
