<?xml version="1.0" encoding="utf-8"?>
<!-- Generator: Adobe Illustrator 17.0.0, SVG Export Plug-In . SVG Version: 6.00 Build 0)  -->
<!DOCTYPE svg PUBLIC "-//W3C//DTD SVG 1.1//EN" "http://www.w3.org/Graphics/SVG/1.1/DTD/svg11.dtd">
<svg version="1.1" id="Layer_1" xmlns="http://www.w3.org/2000/svg" xmlns:xlink="http://www.w3.org/1999/xlink" x="0px" y="0px"
	 width="100px" height="100px" viewBox="0 0 100 100" enable-background="new 0 0 100 100" xml:space="preserve">
<rect x="0" y="85.072" fill="#294B20" width="99.917" height="10.625"/>
<rect x="1.793" y="29.168" fill="#384C4C" width="96.358" height="66.341"/>
<rect x="4.14" y="25.602" fill="#649B9B" width="91.664" height="69.906"/>
<g id="TilesBanner_1_">
	<g id="BottomTiles_1_">
		<g>
			<path fill="#246031" d="M92.232,30.793v7.229c0,0-0.615,3.055-3.843,3.055s-3.884-3.055-3.884-3.055v-7.229H92.232z"/>
			<path fill="#246031" d="M76.965,30.793v7.229c0,0-0.615,3.055-3.843,3.055c-3.228,0-3.966-3.055-3.966-3.055v-7.229H76.965z"/>
			<path fill="#246031" d="M61.469,30.793v7.229c0,0-0.615,3.055-3.843,3.055s-3.843-3.055-3.843-3.055v-7.229H61.469z"/>
			<path fill="#246031" d="M7.706,30.793v7.229c0,0,0.616,3.055,3.849,3.055s3.89-3.055,3.89-3.055v-7.229H7.706z"/>
			<path fill="#246031" d="M22.943,30.793v7.229c0,0,0.616,3.055,3.849,3.055s3.972-3.055,3.972-3.055v-7.229H22.943z"/>
			<path fill="#246031" d="M38.462,30.793v7.229c0,0,0.675,3.055,3.908,3.055c3.233,0,3.849-3.055,3.849-3.055l-0.008-7.229H38.462z
				"/>
		</g>
		<g>
			<path fill="#E0E0E0" d="M99.917,30.791v7.229c0,0-0.615,3.055-3.843,3.055s-3.843-3.055-3.843-3.055v-7.229H99.917z"/>
			<path fill="#E0E0E0" d="M69.156,30.793v7.229c0,0-0.615,3.055-3.843,3.055s-3.843-3.055-3.843-3.055v-7.229H69.156z"/>
			<path fill="#E0E0E0" d="M53.774,30.793v7.229c0,0-0.615,3.055-3.843,3.055c-3.228,0-3.72-3.055-3.72-3.055v-7.229H53.774z"/>
			<path fill="#E0E0E0" d="M84.504,30.793v7.229c0,0-0.615,3.055-3.843,3.055s-3.695-3.055-3.695-3.055v-7.229H84.504z"/>
			<path fill="#E0E0E0" d="M0.001,30.791l0,7.229c0,0,0.616,3.055,3.849,3.055s3.849-3.055,3.849-3.055v-7.229H0.001z"/>
			<path fill="#E0E0E0" d="M30.764,30.793v7.229c0,0,0.616,3.055,3.849,3.055s3.849-3.055,3.849-3.055v-7.229H30.764z"/>
			<path fill="#E0E0E0" d="M15.437,30.793v7.229c0,0,0.616,3.055,3.849,3.055s3.701-3.055,3.701-3.055l-0.032-7.229H15.437z"/>
		</g>
	</g>
	<g id="TopTiles_1_">
		<g id="lightTile_1_">
			<polygon fill="#FDFEFE" points="0.001,30.793 4.14,25.602 11.301,25.602 7.688,30.793 			"/>
			<polygon fill="#FDFEFE" points="30.764,30.793 33.129,25.602 39.806,25.602 38.451,30.793 			"/>
			<polygon fill="#FDFEFE" points="46.211,30.793 46.704,25.602 53.232,25.602 53.774,30.793 			"/>
			<polygon fill="#FDFEFE" points="15.416,30.793 18.643,25.602 25.96,25.602 22.954,30.793 			"/>
			<polygon fill="#FDFEFE" points="99.918,30.793 95.779,25.602 88.618,25.602 92.232,30.793 			"/>
			<polygon fill="#FDFEFE" points="69.156,30.793 66.791,25.602 60.114,25.602 61.469,30.793 			"/>
			<g>
				<polygon fill="#337A44" points="7.688,30.793 11.301,25.602 18.643,25.602 15.416,30.793 				"/>
				<polygon fill="#337A44" points="22.954,30.793 25.96,25.602 33.129,25.602 30.764,30.793 				"/>
				<polygon fill="#337A44" points="38.451,30.793 39.806,25.602 46.704,25.602 46.211,30.793 				"/>
				<polygon fill="#337A44" points="92.232,30.793 88.618,25.602 81.277,25.602 84.504,30.793 				"/>
				<polygon fill="#337A44" points="76.965,30.793 73.96,25.602 66.791,25.602 69.156,30.793 				"/>
				<polygon fill="#337A44" points="61.469,30.793 60.114,25.602 53.216,25.602 53.774,30.793 				"/>
			</g>
			<polygon fill="#FDFEFE" points="84.504,30.793 81.277,25.602 73.96,25.602 76.965,30.793 			"/>
		</g>
	</g>
</g>
<g id="doubleFrame_1_">
	<rect x="4.14" y="23.812" fill="#2F4148" width="91.664" height="1.79"/>
	<rect x="4.14" y="22.022" fill="#0E1E21" width="91.664" height="1.79"/>
</g>
<path id="outerBanner_1_" fill="#C3CCCC" d="M0,4.302v18.101h100V4.302H0z M97.56,19.754H2.499V6.451H97.56V19.754z"/>
<g id="BannerWalls_1_">
	<polygon id="lowerBannerwall_5_" fill="#649B9B" points="2.498,19.755 97.561,19.755 95.804,18.277 4.255,18.277 	"/>
	<polygon id="rightBannerWall_4_" fill="#274E51" points="95.804,8.456 95.804,18.277 97.561,19.755 97.561,6.452 95.804,7.93 	"/>
	<polygon id="topBannerWall_6_" fill="#141114" points="97.561,6.452 2.498,6.452 4.14,7.93 95.804,7.93 	"/>
	<polygon id="leftBannerWall_7_" fill="#8EB2B2" points="4.255,17.752 4.255,8.094 2.498,6.452 2.498,19.755 4.255,18.277 	"/>
</g>
<rect x="4.14" y="7.93" fill="#2F4148" width="91.664" height="10.347"/>
<g id="Window_2_">
	<polygon id="lowerBannerwall_4_" fill="#DDDDDD" points="38.088,79.347 92.437,79.347 91.432,76.226 39.092,76.226 	"/>
	<polygon id="rightBannerWall_2_" fill="#274E51" points="91.432,55.488 91.432,76.226 92.437,79.347 92.437,51.257 91.432,54.378 	
		"/>
	<polygon id="topBannerWall_5_" fill="#0E383D" points="92.437,51.257 38.088,51.257 39.027,54.378 91.432,54.378 	"/>
	<polyline id="leftBannerWall_6_" fill="#8EB2B2" points="39.092,54.725 38.088,51.257 38.088,79.347 39.092,76.226 	"/>
	<rect x="39.027" y="54.378" fill="#167F90" width="52.406" height="21.848"/>
</g>
<rect x="7.294" y="8.883" fill="none" width="84.138" height="12.369"/>
<text transform="matrix(1 0 0 1 7.2935 17.5587)" fill="#D8E06F" stroke="#000000" stroke-width="0.25" stroke-miterlimit="10" font-family="'Bauhaus93'" font-size="13.008"> C A N N A B I S</text>
<g id="titleDots_1_">
	<circle fill="#D8E06F" cx="6.75" cy="13.353" r="0.949"/>
	<circle fill="#D8E06F" cx="93.18" cy="13.353" r="0.949"/>
</g>
<linearGradient id="light_2_" gradientUnits="userSpaceOnUse" x1="4.2553" y1="13.1858" x2="86.7542" y2="13.1858">
	<stop  offset="0" style="stop-color:#FFFFFF;stop-opacity:0"/>
	<stop  offset="0.5215" style="stop-color:#FFFFFF;stop-opacity:0.4"/>
</linearGradient>
<polyline id="light_1_" fill="url(#light_2_)" points="86.754,18.277 4.255,8.094 4.255,18.277 "/>
<polygon fill="#3C671E" points="98.151,85.263 98.151,95.508 1.794,95.508 1.794,85.263 10.659,85.263 10.659,93.245 31.385,93.245 
	31.385,85.263 "/>
<rect x="13.02" y="83.292" fill="#FDFEFE" width="0.004" height="1.971"/>
<g id="Door_2_">
	<g id="DoorHallway_1_">
		<polygon id="lowerBannerwall_3_" fill="#204948" points="7.699,48.338 7.699,95.509 10.66,93.245 10.66,50.602 		"/>
		<polygon id="topBannerWall_3_" fill="#204948" points="34.346,95.509 34.346,48.338 31.385,50.549 31.385,93.245 		"/>
		<polygon id="leftBannerWall_5_" fill="#141114" points="11.713,50.602 31.385,50.549 34.346,48.338 7.757,48.338 10.66,50.602 		
			"/>
		<polygon id="leftBannerWall_4_" fill="#436B6B" points="30.362,93.245 10.66,93.245 7.728,95.509 34.346,95.509 31.414,93.245 		
			"/>
		<rect x="10.66" y="50.549" fill="#167F90" width="20.725" height="42.696"/>
		<rect x="13.024" y="53.011" fill="#167F90" width="15.996" height="30.281"/>
		<rect x="13.024" y="85.263" fill="#167F90" width="15.996" height="5.617"/>
	</g>
	<g id="OpenSign_2_">
		<polygon fill="none" stroke="#FFFFFF" stroke-width="0.25" stroke-miterlimit="10" points="21.082,61.1 17.595,63.879 
			24.569,63.879 		"/>
		<rect x="17.41" y="63.879" fill="#E4672F" width="7.325" height="3.772"/>
		<rect x="17.772" y="64.804" fill="none" width="6.667" height="2.11"/>
		<text transform="matrix(1 0 0 1 17.772 66.6451)" fill="#F1F481" font-family="'Bauhaus93'" font-size="2.7593">OPEN</text>
	</g>
	<path id="DoorFrame_1_" fill="#D1D1D1" d="M10.661,50.55v42.694h20.726V50.55H10.661z M29.022,90.878h-16V53.009h16V90.878z"/>
	<g id="doorHandle_1_">
		<path fill="#EDEDED" d="M30.807,71.797c0,0.082-0.296-0.311-0.556-0.311H11.303c-0.288,0-0.639,0.414-0.639,0.344
			c0-0.084,0.095-0.82,0.256-0.877c0.142-0.049,0.327-0.08,0.536-0.086c0.028-0.004,0.059-0.004,0.091-0.004H29.92
			c0.032,0,0.063,0,0.091,0.004C30.456,70.88,30.807,71.636,30.807,71.797z"/>
		<path fill="#292F30" d="M30.807,71.796c0,0.012,0,0.02-0.004,0.035c-0.035,0.461-0.418,0.82-0.883,0.82H11.547
			c-0.465,0-0.847-0.359-0.883-0.82c-0.004-0.016-0.004-0.024-0.004-0.035V71.78c0-0.02,0.004-0.039,0.004-0.059
			c0.004-0.016,0.008-0.028,0.012-0.039c0.004-0.004,0.004-0.012,0.004-0.016c0.016-0.035,0.039-0.063,0.071-0.091
			c0.075-0.055,0.213-0.091,0.457-0.091h19.055c0.304,0.012,0.453,0.083,0.512,0.185c0.008,0.016,0.012,0.028,0.016,0.039
			c0.004,0.016,0.008,0.032,0.012,0.043C30.807,71.768,30.807,71.784,30.807,71.796z"/>
		<path fill="#BFBBBB" d="M30.807,71.786v0.01c0,0.01,0,0.021-0.004,0.033c-0.047,0.154-0.426,0.278-0.883,0.278H11.547
			c-0.457,0-0.836-0.124-0.883-0.278c-0.004-0.012-0.004-0.023-0.004-0.033V71.78c0-0.021,0.004-0.039,0.004-0.058
			c0.012-0.058,0.035-0.107,0.087-0.146c0.075-0.056,0.213-0.091,0.457-0.091H30.18C30.661,71.486,30.803,71.618,30.807,71.786z"/>
	</g>
</g>
<polygon fill="#FDFEFE" points="99.917,85.263 34.317,85.263 34.317,83.292 98.227,83.292 "/>
<polygon fill="#FDFEFE" points="1.692,83.292 7.728,83.292 7.728,85.263 0,85.263 "/>
<polygon fill="#CECECE" points="10.664,82.239 7.728,83.292 7.711,85.263 10.648,84.21 "/>
<polygon fill="#CECECE" points="31.389,82.239 34.325,83.292 34.342,85.263 31.406,84.21 "/>
<polygon fill="#CECECE" points="98.151,85.263 99.917,85.263 98.227,83.292 95.804,83.292 "/>
<polygon fill="#F6F9D8" points="1.767,85.263 0.001,85.263 1.692,83.292 4.115,83.292 "/>
<polygon fill="#649B9B" points="34.345,95.508 34.317,95.508 32.867,94.376 "/>
<path fill="#649B9B" d="M84.989,76.224H39.028V57.146c0.02-0.004,0.043-0.004,0.063-0.004c1.813-0.146,3.666-0.221,5.546-0.221
	C64.535,56.921,81.142,65.207,84.989,76.224z"/>
<g id="Window_1_">
	<path fill="#DDDDDD" d="M92.436,79.346h-6.713c-0.13-1.06-0.378-2.105-0.733-3.122h6.441L92.436,79.346z"/>
	<polygon id="rightBannerWall_3_" fill="#274E51" points="91.432,55.488 91.432,76.226 92.437,79.347 92.437,51.257 91.432,54.378 	
		"/>
	<polygon id="topBannerWall_4_" fill="#0E383D" points="92.437,51.257 38.088,51.257 39.027,54.378 91.432,54.378 	"/>
	<path fill="#8EB2B2" d="M39.091,54.726v21.499h-0.063V57.146c-0.315,0.024-0.627,0.051-0.942,0.083v-5.972l0.942,3.252
		L39.091,54.726z"/>
	<rect x="39.028" y="54.379" fill="#167F90" width="52.402" height="21.846"/>
</g>
<g id="Door_1_">
	<g id="OpenSign_1_">
		<rect x="17.772" y="64.804" fill="none" width="6.667" height="2.11"/>
		<text transform="matrix(1 0 0 1 17.772 66.6451)" fill="#F1F481" font-family="'Bauhaus93'" font-size="2.7593">OPEN</text>
	</g>
</g>
<polygon fill="#F8F8E2" points="32.867,94.376 34.345,95.508 34.317,95.508 "/>
<linearGradient id="SVGID_1_" gradientUnits="userSpaceOnUse" x1="38.7033" y1="66.4417" x2="85.2743" y2="68.068">
	<stop  offset="0.1921" style="stop-color:#FFFFFF;stop-opacity:0.6"/>
	<stop  offset="0.6348" style="stop-color:#FFFFFF;stop-opacity:0"/>
</linearGradient>
<path fill="url(#SVGID_1_)" d="M84.989,76.224H39.028V57.146c0.02-0.004,0.043-0.004,0.063-0.004
	c1.813-0.146,3.666-0.221,5.546-0.221C64.535,56.921,81.142,65.207,84.989,76.224z"/>
<linearGradient id="SVGID_2_" gradientUnits="userSpaceOnUse" x1="221.4068" y1="72.3102" x2="250.7672" y2="89.2615" gradientTransform="matrix(1 0 0 1 -215.2775 0)">
	<stop  offset="0.1921" style="stop-color:#FFFFFF;stop-opacity:0.6"/>
	<stop  offset="0.6348" style="stop-color:#FFFFFF;stop-opacity:0"/>
</linearGradient>
<path fill="url(#SVGID_2_)" d="M14.448,63.922c12.443,0,17.701,11.571,20.107,26.958H10.941l-0.03-26.851"/>
<linearGradient id="SVGID_3_" gradientUnits="userSpaceOnUse" x1="38.0588" y1="68.7173" x2="49.2342" y2="88.0738">
	<stop  offset="0.1921" style="stop-color:#FFFFFF;stop-opacity:0.2"/>
	<stop  offset="0.3737" style="stop-color:#FFFFFF;stop-opacity:0"/>
</linearGradient>
<path fill="url(#SVGID_3_)" d="M34.345,70.862c0,0,2.159,0,3.173,0c10.731,0,18.447,6.187,20.522,12.128H34.311"/>
</svg>
