<?xml version="1.0" encoding="utf-8"?>
<!-- Generator: Adobe Illustrator 17.0.0, SVG Export Plug-In . SVG Version: 6.00 Build 0)  -->
<!DOCTYPE svg PUBLIC "-//W3C//DTD SVG 1.1//EN" "http://www.w3.org/Graphics/SVG/1.1/DTD/svg11.dtd">
<svg version="1.1" id="Layer_1" xmlns="http://www.w3.org/2000/svg" xmlns:xlink="http://www.w3.org/1999/xlink" x="0px" y="0px"
	 width="100px" height="100px" viewBox="0 0 100 100" enable-background="new 0 0 100 100" xml:space="preserve">
<g id="Layer_1_2_">
	<g>
		<path fill="#1C1C1C" d="M51.87,43.21c-0.01,0-0.01,0-0.01,0c0.05,0.13,0.11,0.25,0.17,0.38C51.97,43.46,51.92,43.34,51.87,43.21z"
			/>
		<path fill="#1C1C1C" d="M99.88,44.73c-5.11,0.48-10.21,0.96-15.38,1.44c3.43-6.42,5.39-13.4,7.26-20.65
			c-5.79,4.03-11.38,7.9-16.31,13.1c0.01-4.6-0.5-9.04-1.32-13.4c-0.14-0.77-0.3-1.54-0.46-2.31c-0.33-1.54-0.69-3.07-1.08-4.6
			c-0.19-0.76-0.39-1.52-0.6-2.28c-0.66-2.43-1.38-4.86-2.11-7.29c-0.76,1.69-1.51,3.38-2.24,5.07c-0.73,1.7-1.43,3.39-2.1,5.11
			c-1.11,2.85-2.12,5.74-2.97,8.68c-0.17,0.59-0.33,1.19-0.49,1.78c-0.31,1.2-0.59,2.4-0.84,3.62c-0.25,1.22-0.47,2.45-0.65,3.7
			c-4.1-5.32-8.82-9.7-13.71-14.06c0.14,1.43,0.31,2.85,0.52,4.26c0.05,0.36,0.11,0.71,0.17,1.06c0.06,0.42,0.14,0.83,0.21,1.25
			c0.24,1.33,0.51,2.65,0.82,3.96c0.1,0.43,0.21,0.86,0.32,1.28c0.08,0.35,0.18,0.7,0.28,1.04c0.09,0.35,0.19,0.7,0.29,1.04
			c0.11,0.37,0.22,0.73,0.33,1.1c0.59,1.88,1.27,3.74,2.04,5.57c-2.17-1.42-4.59-2.63-7.28-3.62c-3.45-1.26-7.06-2.48-10.77-0.56
			c-0.56,0.29-0.91,0.55-1.05,1.21c-1.15,5.31-5.37,8.93-10.79,9.27c-1.19,0.07-2.39,0.01-3.58,0.01c0.02,2.83,0.74,5.87-2.4,7.44
			c-2.2,1.1-4.3,0.5-5.96-1.25c-0.89,0.62-1.82,1.21-2.69,1.86c-0.27,0.2-0.51,0.54-0.61,0.86c-1.35,4.5-1.84,9.1-1.06,13.75
			c2.8,16.67,17.92,27.44,34.52,24.67c15.28-2.56,26.39-17.36,24.26-32.68c-0.07-0.49-0.14-0.96-0.22-1.43
			c0.44-0.19,0.87-0.37,1.33-0.56c-0.16,2.54-0.3,4.97-0.45,7.52c0.79,0.06,1.48,0.12,2.2,0.17c0.18-2.6,0.35-5.03,0.53-7.67
			c5.79,4.22,12.32,4.65,18.99,4.49c0.12-0.13,0.23-0.25,0.34-0.38c-2.19-2.02-4.37-4.04-6.65-6.14c3.81-1.95,7.21-4.31,10.39-6.89
			c0.8-0.65,1.58-1.31,2.35-1.98s1.53-1.35,2.29-2.04c0.76-0.69,1.5-1.39,2.24-2.09c0.74-0.71,1.48-1.41,2.21-2.13
			C99.96,44.93,99.92,44.83,99.88,44.73z M36.55,40.54c-0.18,0.03-0.34,0.06-0.49,0.1c0.15-0.05,0.31-0.08,0.49-0.11V40.54z
			 M51.86,43.21c0,0,0,0,0.01,0c0.05,0.13,0.1,0.25,0.16,0.38C51.97,43.46,51.91,43.34,51.86,43.21z"/>
	</g>
</g>
<g id="Layer_2_1_">
	<path fill="#282828" d="M50.38,41.59c-0.06-0.13-0.12-0.25-0.17-0.38c0,0,0,0,0.01,0C50.27,41.34,50.32,41.46,50.38,41.59z"/>
	<path fill="#282828" d="M85.52,64.3c-0.11,0.12-0.22,0.25-0.33,0.38h-0.01C85.3,64.55,85.41,64.43,85.52,64.3z"/>
	<path fill="#282828" d="M98.36,43.03h-0.01c-0.04-0.1-0.08-0.2-0.12-0.3h0.01C98.28,42.83,98.32,42.93,98.36,43.03z"/>
</g>
<g id="Layer_1_1_">
	<g>
		<path d="M61.801,61.157c-0.068-0.482-0.142-0.958-0.225-1.426c-0.135-0.774-0.294-1.532-0.475-2.273
			c-1.466-6.036-4.369-10.981-8.664-14.781c-0.997-0.884-2.07-1.705-3.219-2.463c-2.165-1.436-4.597-2.647-7.291-3.634
			c-3.445-1.261-7.054-2.477-10.762-0.561c-0.564,0.292-0.909,0.548-1.054,1.214c-1.151,5.306-5.366,8.923-10.792,9.267
			c-1.19,0.075-2.389,0.011-3.576,0.011c0.02,2.83,0.741,5.874-2.399,7.441c-2.198,1.098-4.306,0.502-5.96-1.247
			c-0.896,0.612-1.817,1.206-2.691,1.858c-0.27,0.202-0.51,0.539-0.607,0.861c-1.356,4.502-1.847,9.098-1.067,13.745
			C5.82,85.837,20.94,96.616,37.544,93.839C52.816,91.283,63.933,76.484,61.801,61.157z M8.054,56.083
			c2.297,0.96,4.681,0.765,6.876-0.362c2.264-1.161,2.792-3.411,3.105-5.707c0.048-0.355,0.065-0.712,0.083-0.903
			c1.983-0.458,3.918-0.708,5.708-1.361c4.07-1.481,6.624-4.543,8.022-8.556c0.353-1.019,0.914-1.479,2.053-1.659
			c-0.616,3.68-1.94,6.945-4.534,9.607c-2.656,2.727-6.013,3.724-9.787,3.691c0.206,4.011-1.573,6.746-5.209,8.121
			c-3.311,1.251-6.02-0.2-8.574-2.31C6.511,55.843,7.08,55.676,8.054,56.083z M59.673,66.819
			c-1.124,15.307-15.059,27.254-31.172,24.964C12.371,89.487,2.455,74.156,5.47,59.319c3.211,2.098,6.511,3.097,10.127,1.583
			c3.502-1.466,5.503-4.193,6.25-7.871c9.009-1.254,12.646-7.487,14.41-15.443C47.721,38.668,60.918,49.865,59.673,66.819z"/>
		<path fill="#6D6248" d="M36.256,37.588c-1.764,7.956-5.401,14.189-14.41,15.443c-0.747,3.678-2.748,6.404-6.25,7.871
			c-3.616,1.514-6.916,0.515-10.127-1.583c-3.015,14.838,6.902,30.169,23.032,32.464c16.113,2.29,30.047-9.657,31.172-24.964
			C60.918,49.865,47.721,38.668,36.256,37.588z M18.456,70.444c-0.368-0.377-0.841-0.864-1.354-1.389
			c0.46-0.432,1.028-0.967,1.641-1.545c0.414,0.469,0.866,0.979,1.35,1.53C19.606,69.458,19.015,69.963,18.456,70.444z
			 M24.235,86.568c-0.392-0.634-0.764-1.234-1.183-1.909c0.729-0.432,1.403-0.831,2.128-1.261c0.384,0.629,0.724,1.179,1.155,1.883
			C25.599,85.731,24.962,86.123,24.235,86.568z M38.173,45.995c0.802,0.245,1.516,0.465,2.377,0.727
			c-0.239,0.765-0.439,1.407-0.659,2.117c-0.794-0.237-1.51-0.452-2.355-0.704C37.748,47.422,37.948,46.755,38.173,45.995z
			 M36.758,53.791c0.876-0.247,1.525,0.11,2.139,0.734c0.347,0.355,0.822,0.666,1.295,0.802c1.413,0.407,2.327,1.302,2.834,2.643
			c0.366,0.967,0.27,1.823-0.55,2.58c-0.419,0.385-0.682,0.936-1.032,1.398c-2.02,2.674-6.135,2.819-8.015,0.219
			c-0.53-0.732-0.767-1.675-1.137-2.523C32.487,57.531,34.845,54.332,36.758,53.791z M45.214,80.118
			c-0.577,0.916-1.295,1.745-1.979,2.59c-1.221,1.51-2.816,2.255-4.604,2.28c-4.591-0.12-6.397-3.059-6.138-6.078
			c0.193-2.245,3.096-5.804,5.226-6.45c1.071-0.324,1.882,0.107,2.447,0.956c0.445,0.666,0.999,0.944,1.77,1.079
			c1.865,0.324,3.506,2.098,3.67,3.986C45.655,79.018,45.501,79.665,45.214,80.118z M52.03,68.807h-2.362v-2.088h2.362V68.807z"/>
		<path fill="#1D1D1D" d="M29.369,47.142c-2.656,2.727-6.013,3.724-9.787,3.691c0.206,4.011-1.573,6.746-5.209,8.121
			c-3.311,1.251-6.02-0.2-8.574-2.31c0.712-0.8,1.282-0.967,2.255-0.559c2.297,0.96,4.681,0.765,6.876-0.362
			c2.264-1.161,2.792-3.411,3.105-5.707c0.048-0.355,0.065-0.712,0.083-0.903c1.983-0.458,3.918-0.708,5.708-1.361
			c4.07-1.481,6.624-4.543,8.022-8.556c0.353-1.019,0.914-1.479,2.053-1.659C33.287,41.214,31.963,44.48,29.369,47.142z"/>
		<path stroke="#102310" stroke-miterlimit="10" d="M45.609,78.481c-0.165-1.89-1.805-3.663-3.67-3.986
			c-0.771-0.134-1.326-0.412-1.77-1.079c-0.565-0.849-1.376-1.28-2.447-0.956c-2.13,0.647-5.034,4.206-5.226,6.45
			c-0.259,3.018,1.547,5.957,6.138,6.078c1.788-0.024,3.383-0.769,4.604-2.28c0.684-0.846,1.403-1.675,1.979-2.59
			C45.501,79.665,45.655,79.018,45.609,78.481z M42.717,79.513c-0.254,0.353-0.493,0.719-0.741,1.079
			c-1.455,2.113-3.064,2.63-5.468,1.763c-1.477-0.535-2.229-2.56-1.536-4.138c0.517-1.174,1.968-2.749,3.373-3.571
			c0.729,1.37,1.885,1.9,3.364,2.12C43.082,76.968,43.516,78.402,42.717,79.513z"/>
		<path stroke="#102310" stroke-miterlimit="10" d="M42.717,79.513c-0.254,0.353-0.493,0.719-0.741,1.079
			c-1.455,2.113-3.064,2.63-5.468,1.763c-1.477-0.535-2.229-2.56-1.536-4.138c0.517-1.174,1.968-2.749,3.373-3.571
			c0.729,1.37,1.885,1.9,3.364,2.12C43.082,76.968,43.516,78.402,42.717,79.513z"/>
		<path stroke="#102310" stroke-miterlimit="10" d="M43.025,57.971c-0.506-1.341-1.42-2.235-2.834-2.643
			c-0.474-0.135-0.949-0.447-1.295-0.802c-0.614-0.625-1.263-0.982-2.139-0.734c-1.913,0.542-4.271,3.739-4.469,5.854
			c0.37,0.849,0.607,1.791,1.137,2.523c1.88,2.6,5.995,2.455,8.015-0.219c0.35-0.462,0.614-1.012,1.032-1.398
			C43.294,59.794,43.391,58.937,43.025,57.971z M40.389,59.505c-0.309,0.447-0.587,0.922-0.934,1.339
			c-0.911,1.096-2.886,1.245-3.953,0.324c-1.008-0.87-1.052-2.15-0.053-3.406c0.469-0.589,1.036-1.102,1.378-1.461
			c1.109,0.491,1.942,0.938,2.829,1.232C40.759,57.896,41.044,58.552,40.389,59.505z"/>
		<path d="M40.389,59.505c-0.309,0.447-0.587,0.922-0.934,1.339c-0.911,1.096-2.886,1.245-3.953,0.324
			c-1.008-0.87-1.052-2.15-0.053-3.406c0.469-0.589,1.036-1.102,1.378-1.461c1.109,0.491,1.942,0.938,2.829,1.232
			C40.759,57.896,41.044,58.552,40.389,59.505z"/>
		<path fill="#0A8C45" d="M40.551,46.723c-0.238,0.764-0.438,1.407-0.658,2.118c-0.793-0.237-1.51-0.452-2.356-0.705
			c0.212-0.712,0.411-1.379,0.638-2.14C38.976,46.241,39.689,46.459,40.551,46.723z"/>
		<path fill="#0A8C45" d="M26.333,85.282c-0.735,0.45-1.372,0.84-2.1,1.285c-0.391-0.632-0.763-1.232-1.182-1.908
			c0.729-0.432,1.401-0.83,2.126-1.26C25.563,84.027,25.901,84.578,26.333,85.282z"/>
		<path fill="#0A8C45" d="M18.743,67.762c0.414,0.468,0.865,0.979,1.351,1.53c-0.487,0.418-1.079,0.926-1.638,1.406
			c-0.369-0.378-0.843-0.865-1.355-1.389C17.561,68.875,18.128,68.341,18.743,67.762z"/>
		<path fill="#0A8C45" d="M49.666,68.807c0-0.732,0-1.375,0-2.088c0.785,0,1.53,0,2.363,0c0,0.676,0,1.343,0,2.088
			C51.267,68.807,50.521,68.807,49.666,68.807z"/>
		<path fill="#1D1D1D" d="M38.344,74.644c0.73,1.371,1.887,1.902,3.365,2.121c1.373,0.204,1.807,1.637,1.009,2.748
			c-0.255,0.354-0.493,0.72-0.741,1.079c-1.457,2.112-3.064,2.63-5.468,1.762c-1.477-0.533-2.229-2.56-1.536-4.137
			C35.488,77.041,36.94,75.468,38.344,74.644z"/>
		<path fill="#1D1D1D" d="M36.828,56.301c1.107,0.49,1.942,0.937,2.827,1.23c1.102,0.366,1.388,1.021,0.732,1.974
			c-0.309,0.448-0.586,0.922-0.933,1.339c-0.911,1.097-2.885,1.245-3.953,0.324c-1.009-0.869-1.052-2.149-0.052-3.405
			C35.919,57.173,36.487,56.659,36.828,56.301z"/>
	</g>
</g>
<g id="Layer_2">
	<path fill="#0A8C45" d="M77.872,57.159c2.277,2.102,4.462,4.118,6.646,6.136c-0.112,0.13-0.222,0.257-0.333,0.385
		c-6.671,0.158-13.208-0.274-18.993-4.495c-0.182,2.639-0.35,5.067-0.53,7.671c-0.719-0.053-1.409-0.105-2.205-0.167
		c0.153-2.549,0.298-4.977,0.449-7.524c-0.46,0.193-0.894,0.377-1.333,0.564c-0.41,0.171-0.826,0.347-1.271,0.532
		c-0.265-0.706-0.511-1.361-0.729-1.946c0.519-0.289,1.026-0.577,1.525-0.859c-1.346-5.541-3.903-10.161-7.637-13.823
		c-0.669,0.313-2.033-0.484-2.744-0.149c-0.539-1.083-1.039-2.172-1.503-3.272c-2.766-6.536-4.282-13.389-4.983-20.576
		c4.887,4.366,9.605,8.741,13.707,14.06c1.451-9.984,5.224-18.925,9.296-27.97c2.941,9.792,5.586,19.436,5.568,29.891
		c4.924-5.194,10.521-9.067,16.306-13.093c-1.87,7.245-3.833,14.224-7.256,20.648c5.165-0.484,10.273-0.964,15.381-1.444
		c0.042,0.103,0.081,0.204,0.12,0.307C91.475,47.717,85.485,53.263,77.872,57.159z"/>
	<path d="M84.186,63.682c-6.671,0.157-13.208-0.273-18.993-4.494c-0.183,2.638-0.35,5.067-0.531,7.672
		c-0.719-0.054-1.409-0.107-2.205-0.167c0.152-2.551,0.297-4.979,0.45-7.525c-0.889,0.374-1.682,0.708-2.605,1.095
		c-0.264-0.705-0.51-1.361-0.728-1.946c1.519-0.848,2.929-1.678,4.39-2.409c0.262-0.132,0.841,0.031,1.089,0.259
		c3.675,3.366,8.137,4.728,12.967,5.177c0.277,0.026,0.557,0.004,0.977-0.219c-1.707-1.5-3.414-3.001-5.263-4.627
		c6.748-2.612,12.271-6.995,17.734-11.997c-4.953,0.265-9.546,1.064-14.379,2.156c3.968-5.8,6.316-11.997,8.216-18.711
		c-5.884,4.183-11.06,8.674-15.274,14.321c1.584-10.224-0.487-19.987-3.221-29.997c-3.83,9.045-6.957,17.968-7.154,27.722
		c-3.412-5.332-7.484-10.008-12.321-14.445c0.944,6.102,3.592,12.688,6.13,18.088c-0.669,0.315-2.036-0.485-2.745-0.151
		c-3.738-7.513-5.669-15.451-6.488-23.848c4.886,4.366,9.606,8.74,13.709,14.06c1.45-9.983,5.224-18.927,9.294-27.97
		c2.941,9.793,5.587,19.435,5.569,29.89c4.923-5.194,10.52-9.069,16.306-13.094c-1.87,7.245-3.834,14.224-7.257,20.648
		c5.166-0.485,10.274-0.964,15.382-1.444c0.041,0.102,0.081,0.205,0.121,0.306c-5.883,5.685-11.873,11.23-19.484,15.127
		c2.276,2.101,4.46,4.118,6.645,6.135C84.407,63.424,84.297,63.553,84.186,63.682z"/>
</g>
</svg>
