<?xml version="1.0" encoding="utf-8"?>
<!-- Generator: Adobe Illustrator 17.0.0, SVG Export Plug-In . SVG Version: 6.00 Build 0)  -->
<!DOCTYPE svg PUBLIC "-//W3C//DTD SVG 1.1//EN" "http://www.w3.org/Graphics/SVG/1.1/DTD/svg11.dtd">
<svg version="1.1" id="Layer_1" xmlns="http://www.w3.org/2000/svg" xmlns:xlink="http://www.w3.org/1999/xlink" x="0px" y="0px"
	 width="100px" height="100px" viewBox="0 0 100 100" enable-background="new 0 0 100 100" xml:space="preserve">
<g id="Layer_1_3_">
	<g>
		<path fill="#1C1C1C" d="M49.87,41.21c-0.01,0-0.01,0-0.01,0c0.05,0.13,0.11,0.25,0.17,0.38C49.97,41.46,49.92,41.34,49.87,41.21z"
			/>
		<path fill="#1C1C1C" d="M97.88,42.73c-5.11,0.48-10.21,0.96-15.38,1.44c3.43-6.42,5.39-13.4,7.26-20.65
			c-5.79,4.03-11.38,7.9-16.31,13.1c0.01-4.6-0.5-9.04-1.32-13.4c-0.14-0.77-0.3-1.54-0.46-2.31c-0.33-1.54-0.69-3.07-1.08-4.6
			c-0.19-0.76-0.39-1.52-0.6-2.28c-0.66-2.43-1.38-4.86-2.11-7.29c-0.76,1.69-1.51,3.38-2.24,5.07c-0.73,1.7-1.43,3.39-2.1,5.11
			c-1.11,2.85-2.12,5.74-2.97,8.68c-0.17,0.59-0.33,1.19-0.49,1.78c-0.31,1.2-0.59,2.4-0.84,3.62s-0.47,2.45-0.65,3.7
			c-4.1-5.32-8.82-9.7-13.71-14.06c0.14,1.43,0.31,2.85,0.52,4.26c0.05,0.36,0.11,0.71,0.17,1.06c0.06,0.42,0.14,0.83,0.21,1.25
			c0.24,1.33,0.51,2.65,0.82,3.96c0.1,0.43,0.21,0.86,0.32,1.28c0.08,0.35,0.18,0.7,0.28,1.04c0.09,0.35,0.19,0.7,0.29,1.04
			c0.11,0.37,0.22,0.73,0.33,1.1c0.59,1.88,1.27,3.74,2.04,5.57c-2.17-1.42-4.59-2.63-7.28-3.62c-3.45-1.26-7.06-2.48-10.77-0.56
			c-0.56,0.29-0.91,0.55-1.05,1.21c-1.15,5.31-5.37,8.93-10.79,9.27c-1.19,0.07-2.39,0.01-3.58,0.01c0.02,2.83,0.74,5.87-2.4,7.44
			c-2.2,1.1-4.3,0.5-5.96-1.25c-0.89,0.62-1.82,1.21-2.69,1.86c-0.27,0.2-0.51,0.54-0.61,0.86c-1.35,4.5-1.84,9.1-1.06,13.75
			c2.8,16.67,17.92,27.44,34.52,24.67c15.28-2.56,26.39-17.36,24.26-32.68c-0.07-0.49-0.14-0.96-0.22-1.43
			c0.44-0.19,0.87-0.37,1.33-0.56c-0.16,2.54-0.3,4.97-0.45,7.52c0.79,0.06,1.48,0.12,2.2,0.17c0.18-2.6,0.35-5.03,0.53-7.67
			c5.79,4.22,12.32,4.65,18.99,4.49c0.12-0.13,0.23-0.25,0.34-0.38c-2.19-2.02-4.37-4.04-6.65-6.14c3.81-1.95,7.21-4.31,10.39-6.89
			c0.8-0.65,1.58-1.31,2.35-1.98c0.77-0.67,1.53-1.35,2.29-2.04c0.76-0.69,1.5-1.39,2.24-2.09c0.74-0.71,1.48-1.41,2.21-2.13
			C97.96,42.93,97.92,42.83,97.88,42.73z M34.55,38.54c-0.18,0.03-0.34,0.06-0.49,0.1c0.15-0.05,0.31-0.08,0.49-0.11V38.54z
			 M49.86,41.21c0,0,0,0,0.01,0c0.05,0.13,0.1,0.25,0.16,0.38C49.97,41.46,49.91,41.34,49.86,41.21z"/>
	</g>
</g>
<path fill="#1C1C1C" d="M49.98,40.63c-5-4.21-11.46-6.73-18.51-6.73c-15.92,0-28.82,12.9-28.82,28.82c0,3.9,0.77,7.61,2.18,11
	c4.32,10.46,14.62,17.82,26.64,17.82c15.92,0,28.82-12.9,28.82-28.82C60.29,53.85,56.28,45.91,49.98,40.63z M34.9,38.54
	c-0.18,0.03-0.34,0.06-0.49,0.1c0.15-0.05,0.31-0.08,0.49-0.11V38.54z M50.21,41.21c0,0,0,0,0.01,0c0.05,0.13,0.1,0.25,0.16,0.38
	C50.32,41.46,50.26,41.34,50.21,41.21z"/>
<path fill="#6D6248" d="M34.9,38.53v0.01c-0.18,0.03-0.34,0.06-0.49,0.1C34.56,38.59,34.72,38.56,34.9,38.53z"/>
<path fill="#6D6248" d="M50.38,41.59c-0.06-0.13-0.12-0.25-0.17-0.38c0,0,0,0,0.01,0C50.27,41.34,50.32,41.46,50.38,41.59z"/>
<g id="Layer_2_1_">
	<path fill="#282828" d="M50.38,41.59c-0.06-0.13-0.12-0.25-0.17-0.38c0,0,0,0,0.01,0C50.27,41.34,50.32,41.46,50.38,41.59z"/>
	<path fill="#282828" d="M63.89,16.92c-1.11,2.85-2.12,5.74-2.97,8.68C61.76,22.66,62.77,19.77,63.89,16.92z"/>
	<path fill="#282828" d="M72.02,20.91c-0.33-1.54-0.69-3.07-1.08-4.6C71.33,17.84,71.7,19.37,72.02,20.91z"/>
	<path fill="#282828" d="M85.52,64.3c-0.11,0.12-0.22,0.25-0.33,0.38h-0.01C85.3,64.55,85.41,64.43,85.52,64.3z"/>
	<path fill="#282828" d="M98.36,43.03h-0.01c-0.04-0.1-0.08-0.2-0.12-0.3h0.01C98.28,42.83,98.32,42.93,98.36,43.03z"/>
</g>
<path fill="#6D6248" d="M36.23,37.73c-1.29-0.19-2.6-0.29-3.94-0.29c-13.23,0-24.24,9.49-26.58,22.04c-0.31,1.62-0.47,3.3-0.47,5.01
	c0,14.94,12.11,27.05,27.05,27.05s27.05-12.11,27.05-27.05C59.34,50.89,49.3,39.63,36.23,37.73z M38.17,46v-0.01
	c0.41,0.13,0.79,0.24,1.17,0.36c0.39,0.12,0.78,0.24,1.21,0.37c-0.24,0.77-0.44,1.41-0.66,2.12c-0.79-0.24-1.51-0.45-2.35-0.7
	C37.75,47.42,37.95,46.76,38.17,46z M20.09,69.29c-0.48,0.42-1.08,0.93-1.63,1.41c-0.37-0.38-0.85-0.87-1.36-1.39
	c0.04-0.04,0.08-0.08,0.13-0.12c-0.04-0.05-0.08-0.09-0.13-0.14c0.46-0.43,1.03-0.96,1.64-1.54c0.42,0.47,0.87,0.98,1.35,1.53
	c-0.04,0.04-0.08,0.07-0.13,0.11C20.01,69.2,20.05,69.24,20.09,69.29z M24.23,86.57c-0.39-0.63-0.76-1.23-1.18-1.91
	c0.73-0.43,1.4-0.83,2.13-1.26c0.38,0.63,0.72,1.18,1.15,1.88C25.6,85.73,24.96,86.12,24.23,86.57z M36.76,53.79
	c0.87-0.25,1.52,0.11,2.14,0.74c0.34,0.35,0.82,0.66,1.29,0.8c0.46,0.13,0.86,0.31,1.22,0.56c0.75,0.47,1.28,1.17,1.62,2.08
	c0.36,0.97,0.26,1.82-0.55,2.58c-0.42,0.39-0.69,0.94-1.04,1.4c-2.02,2.67-6.13,2.82-8.01,0.22c-0.53-0.73-0.77-1.68-1.14-2.52
	C32.49,57.53,34.85,54.33,36.76,53.79z M45.51,79.42c-0.07,0.25-0.17,0.5-0.29,0.7c-0.14,0.23-0.3,0.45-0.46,0.67
	c-0.48,0.66-1.01,1.28-1.52,1.92c-0.16,0.19-0.32,0.37-0.48,0.53c-1.15,1.16-2.57,1.72-4.13,1.75c-1.88-0.05-3.3-0.57-4.29-1.38
	c-0.14-0.12-0.28-0.24-0.4-0.37c-0.51-0.51-0.87-1.1-1.1-1.73c-0.32-0.81-0.43-1.7-0.35-2.6c0.07-0.84,0.53-1.87,1.18-2.85
	c1.09-1.65,2.72-3.19,4.05-3.6c1.07-0.32,1.88,0.11,2.45,0.96c0.17,0.25,0.35,0.44,0.55,0.59c0.14,0.11,0.28,0.19,0.44,0.26
	c0.08,0.03,0.16,0.06,0.24,0.09c0.17,0.06,0.35,0.1,0.54,0.13c0.23,0.04,0.46,0.11,0.68,0.19c1.57,0.58,2.84,2.15,2.99,3.8
	C45.63,78.78,45.6,79.11,45.51,79.42z M49.67,68.81v-2.09h2.36v2.09H49.67z"/>
<path fill="#6D6248" d="M20.09,69.04c-0.04,0.04-0.08,0.07-0.13,0.11c0.05,0.05,0.09,0.09,0.13,0.14c-0.48,0.42-1.08,0.93-1.63,1.41
	c-0.37-0.38-0.85-0.87-1.36-1.39c0.04-0.04,0.08-0.08,0.13-0.12c-0.04-0.05-0.08-0.09-0.13-0.14c0.46-0.43,1.03-0.96,1.64-1.54
	C19.16,67.98,19.61,68.49,20.09,69.04z"/>
<path fill="#6D6248" d="M25.18,83.4c0.38,0.63,0.72,1.18,1.15,1.88c-0.73,0.45-1.37,0.84-2.1,1.29c-0.39-0.63-0.76-1.23-1.18-1.91
	C23.78,84.23,24.45,83.83,25.18,83.4z"/>
<path fill="#6D6248" d="M39.89,48.84c-0.79-0.24-1.51-0.45-2.35-0.7c0.21-0.72,0.41-1.38,0.63-2.14v-0.01
	c0.41,0.13,0.79,0.24,1.17,0.36c0.39,0.12,0.78,0.24,1.21,0.37C40.31,47.49,40.11,48.13,39.89,48.84z"/>
<path fill="#6D6248" d="M33.43,62.17c-0.53-0.73-0.77-1.68-1.14-2.52c0.2-2.12,2.56-5.32,4.47-5.86c0.87-0.25,1.52,0.11,2.14,0.74
	c0.34,0.35,0.82,0.66,1.29,0.8c0.46,0.13,0.86,0.31,1.22,0.56c0.75,0.47,1.28,1.17,1.62,2.08c0.36,0.97,0.26,1.82-0.55,2.58
	c-0.42,0.39-0.69,0.94-1.04,1.4C39.42,64.62,35.31,64.77,33.43,62.17z"/>
<path fill="#6D6248" d="M45.61,78.48c0.02,0.3-0.01,0.63-0.1,0.94c-0.07,0.25-0.17,0.5-0.29,0.7c-0.14,0.23-0.3,0.45-0.46,0.67
	c-0.48,0.66-1.01,1.28-1.52,1.92c-0.15,0.19-0.31,0.37-0.48,0.53c-1.15,1.16-2.57,1.72-4.13,1.75c-1.88-0.05-3.3-0.57-4.29-1.38
	c-0.14-0.12-0.28-0.24-0.4-0.37c-0.51-0.51-0.87-1.1-1.1-1.73c-0.32-0.81-0.43-1.7-0.35-2.6c0.07-0.84,0.53-1.87,1.18-2.85
	c1.09-1.65,2.72-3.19,4.05-3.6c1.07-0.32,1.88,0.11,2.45,0.96c0.17,0.25,0.35,0.44,0.55,0.59c0.14,0.11,0.28,0.19,0.44,0.26
	c0.08,0.03,0.16,0.06,0.24,0.09c0.17,0.06,0.35,0.1,0.54,0.13c0.23,0.04,0.46,0.11,0.68,0.19C44.19,75.26,45.46,76.83,45.61,78.48z"
	/>
<rect x="49.67" y="66.72" fill="#6D6248" width="2.36" height="2.09"/>
<g id="Layer_1_1_">
	<g>
		<path d="M36.26,37.59c-0.01,0.05-0.02,0.09-0.03,0.14c13.07,1.9,23.11,13.16,23.11,26.76c0,14.94-12.11,27.05-27.05,27.05
			S5.24,79.43,5.24,64.49c0-1.71,0.16-3.39,0.47-5.01c-0.08-0.06-0.16-0.11-0.24-0.16c-3.02,14.84,6.9,30.17,23.03,32.46
			c16.11,2.29,30.05-9.65,31.17-24.96C60.92,49.87,47.72,38.67,36.26,37.59z M52.03,66.72h-2.36v2.09h2.36V66.72z M41.44,61.95
			c0.35-0.46,0.62-1.01,1.04-1.4c0.81-0.76,0.91-1.61,0.55-2.58c-0.34-0.91-0.87-1.61-1.62-2.08c-0.36-0.25-0.76-0.43-1.22-0.56
			c-0.47-0.14-0.95-0.45-1.29-0.8c-0.62-0.63-1.27-0.99-2.14-0.74c-1.91,0.54-4.27,3.74-4.47,5.86c0.37,0.84,0.61,1.79,1.14,2.52
			C35.31,64.77,39.42,64.62,41.44,61.95z M41.4,74.36c-0.08-0.03-0.16-0.06-0.24-0.09c-0.16-0.07-0.3-0.15-0.44-0.26
			c-0.2-0.15-0.38-0.34-0.55-0.59c-0.57-0.85-1.38-1.28-2.45-0.96c-1.33,0.41-2.96,1.95-4.05,3.6c-0.65,0.98-1.11,2.01-1.18,2.85
			c-0.08,0.9,0.03,1.79,0.35,2.6c0.23,0.63,0.59,1.22,1.1,1.73c0.12,0.13,0.26,0.25,0.4,0.37c0.99,0.81,2.41,1.33,4.29,1.38
			c1.56-0.03,2.98-0.59,4.13-1.75c0.17-0.16,0.33-0.34,0.48-0.53c0.51-0.64,1.04-1.26,1.52-1.92c0.16-0.22,0.32-0.44,0.46-0.67
			c0.12-0.2,0.22-0.45,0.29-0.7c0.09-0.31,0.12-0.64,0.1-0.94c-0.15-1.65-1.42-3.22-2.99-3.8c-0.22-0.08-0.45-0.15-0.68-0.19
			C41.75,74.46,41.57,74.42,41.4,74.36z M40.55,46.72c-0.43-0.13-0.82-0.25-1.21-0.37c-0.38-0.12-0.76-0.23-1.17-0.36V46
			c-0.22,0.76-0.42,1.42-0.63,2.14c0.84,0.25,1.56,0.46,2.35,0.7C40.11,48.13,40.31,47.49,40.55,46.72z M26.33,85.28
			c-0.43-0.7-0.77-1.25-1.15-1.88c-0.73,0.43-1.4,0.83-2.13,1.26c0.42,0.68,0.79,1.28,1.18,1.91C24.96,86.12,25.6,85.73,26.33,85.28
			z M18.46,70.7c0.55-0.48,1.15-0.99,1.63-1.41c-0.04-0.05-0.08-0.09-0.13-0.14c0.05-0.04,0.09-0.07,0.13-0.11
			c-0.48-0.55-0.93-1.06-1.35-1.53c-0.61,0.58-1.18,1.11-1.64,1.54c0.05,0.05,0.09,0.09,0.13,0.14c-0.05,0.04-0.09,0.08-0.13,0.12
			C17.61,69.83,18.09,70.32,18.46,70.7z"/>
		<path fill="#6D6248" d="M36.26,37.59c-0.01,0.05-0.02,0.09-0.03,0.14c13.07,1.9,23.11,13.16,23.11,26.76
			c0,14.94-12.11,27.05-27.05,27.05S5.24,79.43,5.24,64.49c0-1.71,0.16-3.39,0.47-5.01c-0.08-0.06-0.16-0.11-0.24-0.16
			c-3.02,14.84,6.9,30.17,23.03,32.46c16.11,2.29,30.05-9.65,31.17-24.96C60.92,49.87,47.72,38.67,36.26,37.59z M45.21,80.12
			c-0.14,0.23-0.29,0.45-0.45,0.67c0.16-0.22,0.32-0.44,0.46-0.67c0.12-0.2,0.22-0.45,0.29-0.7C45.44,79.67,45.34,79.92,45.21,80.12
			z M41.94,74.49c-0.19-0.03-0.37-0.07-0.54-0.13c0.17,0.06,0.35,0.1,0.54,0.14c0.23,0.04,0.46,0.1,0.68,0.18
			C42.4,74.6,42.17,74.53,41.94,74.49z M20.09,69.29c-0.04-0.05-0.08-0.09-0.13-0.14c-0.45,0.4-1,0.85-1.5,1.29
			c-0.34-0.34-0.76-0.77-1.23-1.25c-0.05,0.04-0.09,0.08-0.13,0.12c0.51,0.52,0.99,1.01,1.36,1.39
			C19.01,70.22,19.61,69.71,20.09,69.29z"/>
		<path stroke="#102310" stroke-miterlimit="10" d="M42.62,74.68c-0.22-0.08-0.45-0.15-0.68-0.19c-0.19-0.03-0.37-0.07-0.54-0.13
			c-0.08-0.03-0.16-0.06-0.24-0.09c-0.16-0.07-0.3-0.15-0.44-0.26c-0.2-0.15-0.38-0.34-0.55-0.59c-0.57-0.85-1.38-1.28-2.45-0.96
			c-1.33,0.41-2.96,1.95-4.05,3.6c-0.64,0.98-1.09,2.01-1.17,2.85c-0.08,0.9,0.03,1.79,0.34,2.6c0.23,0.63,0.59,1.22,1.1,1.73
			c0.12,0.13,0.26,0.25,0.4,0.37c0.99,0.81,2.41,1.33,4.29,1.38c1.56-0.03,2.98-0.59,4.13-1.75c0.17-0.16,0.33-0.34,0.48-0.53
			c0.51-0.64,1.04-1.26,1.52-1.92c0.16-0.22,0.32-0.44,0.46-0.67c0.12-0.2,0.22-0.45,0.29-0.7c0.09-0.31,0.12-0.64,0.1-0.94
			C45.46,76.83,44.19,75.26,42.62,74.68z M42.72,79.51c-0.26,0.36-0.5,0.72-0.74,1.08c-0.13,0.18-0.25,0.35-0.38,0.51
			c-0.26,0.32-0.52,0.6-0.8,0.82c-1.17,0.96-2.51,1.07-4.29,0.43c-1.48-0.53-2.23-2.56-1.54-4.13c0.45-1.03,1.62-2.36,2.84-3.23
			c0.18-0.12,0.35-0.24,0.53-0.34c0.19,0.34,0.39,0.63,0.63,0.87c0.11,0.13,0.24,0.24,0.37,0.34c0.26,0.21,0.54,0.37,0.85,0.5
			c0.3,0.14,0.63,0.24,0.98,0.31c0.17,0.04,0.35,0.07,0.54,0.1c0.11,0.02,0.22,0.04,0.32,0.07C43.14,77.2,43.45,78.49,42.72,79.51z"
			/>
		<path stroke="#102310" stroke-miterlimit="10" d="M42.717,79.513c-0.254,0.353-0.493,0.719-0.741,1.079
			c-1.455,2.113-3.064,2.63-5.468,1.763c-1.477-0.535-2.229-2.56-1.536-4.138c0.517-1.174,1.968-2.749,3.373-3.571
			c0.729,1.37,1.885,1.9,3.364,2.12C43.082,76.968,43.516,78.402,42.717,79.513z"/>
		<path stroke="#102310" stroke-miterlimit="10" d="M43.03,57.97c-0.34-0.91-0.87-1.61-1.62-2.08c-0.35-0.24-0.76-0.43-1.22-0.56
			c-0.47-0.14-0.95-0.45-1.29-0.8c-0.62-0.63-1.27-0.99-2.14-0.74c-1.91,0.54-4.27,3.74-4.47,5.86c0.37,0.84,0.61,1.79,1.14,2.52
			c1.88,2.6,5.99,2.45,8.01-0.22c0.35-0.46,0.62-1.01,1.04-1.4C43.29,59.79,43.39,58.94,43.03,57.97z M40.39,59.51
			c-0.31,0.44-0.59,0.92-0.94,1.33c-0.91,1.1-2.88,1.25-3.95,0.33c-1.01-0.87-1.05-2.15-0.05-3.41c0.08-0.09,0.15-0.19,0.24-0.28
			c0.1-0.12,0.21-0.24,0.31-0.35l0.19-0.19c0.24-0.24,0.47-0.46,0.64-0.64c1.11,0.49,1.94,0.94,2.83,1.23
			C40.76,57.9,41.04,58.55,40.39,59.51z"/>
		<path d="M40.389,59.505c-0.309,0.447-0.587,0.922-0.934,1.339c-0.911,1.096-2.886,1.245-3.953,0.324
			c-1.008-0.87-1.052-2.15-0.053-3.406c0.469-0.589,1.036-1.102,1.378-1.461c1.109,0.491,1.942,0.938,2.829,1.232
			C40.759,57.896,41.044,58.552,40.389,59.505z"/>
		<path fill="#0A8C45" d="M40.55,46.72c-0.24,0.77-0.44,1.41-0.66,2.12c-0.79-0.24-1.51-0.45-2.35-0.7
			c0.21-0.72,0.41-1.38,0.63-2.14c0.41,0.12,0.79,0.24,1.17,0.35C39.73,46.47,40.12,46.59,40.55,46.72z"/>
		<path fill="#0A8C45" d="M12.783,51.727c-0.24,0.77-0.44,1.41-0.66,2.12c-0.79-0.24-1.51-0.45-2.35-0.7
			c0.21-0.72,0.41-1.38,0.63-2.14c0.41,0.12,0.79,0.24,1.17,0.35C11.963,51.477,12.353,51.597,12.783,51.727z"/>
		<path fill="#0A8C45" d="M26.33,85.28c-0.73,0.45-1.37,0.84-2.1,1.29c-0.39-0.63-0.76-1.23-1.18-1.91c0.73-0.43,1.4-0.83,2.13-1.26
			C25.56,84.03,25.9,84.58,26.33,85.28z"/>
		<path fill="#0A8C45" d="M20.09,69.29c-0.48,0.42-1.08,0.93-1.63,1.41c-0.37-0.38-0.85-0.87-1.36-1.39
			c0.04-0.04,0.08-0.08,0.13-0.12c0.43-0.41,0.96-0.9,1.51-1.43c0.38,0.43,0.79,0.89,1.22,1.39C20.01,69.2,20.05,69.24,20.09,69.29z
			"/>
		<rect x="49.67" y="66.72" fill="#0A8C45" width="2.36" height="2.09"/>
		<path fill="#1D1D1D" d="M38.344,74.644c0.73,1.371,1.887,1.902,3.365,2.121c1.373,0.204,1.807,1.637,1.009,2.748
			c-0.255,0.354-0.493,0.72-0.741,1.079c-1.457,2.112-3.064,2.63-5.468,1.762c-1.477-0.533-2.229-2.56-1.536-4.137
			C35.488,77.041,36.94,75.468,38.344,74.644z"/>
		<path fill="#1D1D1D" d="M36.828,56.301c1.107,0.49,1.942,0.937,2.827,1.23c1.102,0.366,1.388,1.021,0.732,1.974
			c-0.309,0.448-0.586,0.922-0.933,1.339c-0.911,1.097-2.885,1.245-3.953,0.324c-1.009-0.869-1.052-2.149-0.052-3.405
			C35.919,57.173,36.487,56.659,36.828,56.301z"/>
		<path stroke="#102310" stroke-miterlimit="10" d="M24.492,46.931c-0.34-0.91-0.87-1.61-1.62-2.08c-0.35-0.24-0.76-0.43-1.22-0.56
			c-0.47-0.14-0.95-0.45-1.29-0.8c-0.62-0.63-1.27-0.99-2.14-0.74c-1.91,0.54-4.27,3.74-4.47,5.86c0.37,0.84,0.61,1.79,1.14,2.52
			c1.88,2.6,5.99,2.45,8.01-0.22c0.35-0.46,0.62-1.01,1.04-1.4C24.752,48.751,24.852,47.901,24.492,46.931z M21.852,48.471
			c-0.31,0.44-0.59,0.92-0.94,1.33c-0.91,1.1-2.88,1.25-3.95,0.33c-1.01-0.87-1.05-2.15-0.05-3.41c0.08-0.09,0.15-0.19,0.24-0.28
			c0.1-0.12,0.21-0.24,0.31-0.35l0.19-0.19c0.24-0.24,0.47-0.46,0.64-0.64c1.11,0.49,1.94,0.94,2.83,1.23
			C22.222,46.861,22.502,47.511,21.852,48.471z"/>
		<path fill="#1D1D1D" d="M18.29,45.262c1.107,0.49,1.942,0.937,2.827,1.23c1.102,0.366,1.388,1.021,0.732,1.974
			c-0.309,0.448-0.586,0.922-0.933,1.339c-0.911,1.097-2.885,1.245-3.953,0.324c-1.009-0.869-1.052-2.149-0.052-3.405
			C17.381,46.134,17.948,45.62,18.29,45.262z"/>
	</g>
</g>
<g id="Layer_2">
	<path fill="#0A8C45" d="M77.872,57.159c2.277,2.102,4.462,4.118,6.646,6.136c-0.112,0.13-0.222,0.257-0.333,0.385
		c-6.671,0.158-13.208-0.274-18.993-4.495c-0.182,2.639-0.35,5.067-0.53,7.671c-0.719-0.053-1.409-0.105-2.205-0.167
		c0.153-2.549,0.298-4.977,0.449-7.524c-0.46,0.193-0.894,0.377-1.333,0.564c-0.41,0.171-0.826,0.347-1.271,0.532
		c-0.265-0.706-0.511-1.361-0.729-1.946c0.519-0.289,1.026-0.577,1.525-0.859c-1.346-5.541-3.903-10.161-7.637-13.823
		c-0.669,0.313-2.033-0.484-2.744-0.149c-0.539-1.083-1.039-2.172-1.503-3.272c-2.766-6.536-4.282-13.389-4.983-20.576
		c4.887,4.366,9.605,8.741,13.707,14.06c1.451-9.984,5.224-18.925,9.296-27.97c2.941,9.792,5.586,19.436,5.568,29.891
		c4.924-5.194,10.521-9.067,16.306-13.093c-1.87,7.245-3.833,14.224-7.256,20.648c5.165-0.484,10.273-0.964,15.381-1.444
		c0.042,0.103,0.081,0.204,0.12,0.307C91.475,47.717,85.485,53.263,77.872,57.159z"/>
	<path d="M84.186,63.682c-6.671,0.157-13.208-0.273-18.993-4.494c-0.183,2.638-0.35,5.067-0.531,7.672
		c-0.719-0.054-1.409-0.107-2.205-0.167c0.152-2.551,0.297-4.979,0.45-7.525c-0.889,0.374-1.682,0.708-2.605,1.095
		c-0.264-0.705-0.51-1.361-0.728-1.946c1.519-0.848,2.929-1.678,4.39-2.409c0.262-0.132,0.841,0.031,1.089,0.259
		c3.675,3.366,8.137,4.728,12.967,5.177c0.277,0.026,0.557,0.004,0.977-0.219c-1.707-1.5-3.414-3.001-5.263-4.627
		c6.748-2.612,12.271-6.995,17.734-11.997c-4.953,0.265-9.546,1.064-14.379,2.156c3.968-5.8,6.316-11.997,8.216-18.711
		c-5.884,4.183-11.06,8.674-15.274,14.321c1.584-10.224-0.487-19.987-3.221-29.997c-3.83,9.045-6.957,17.968-7.154,27.722
		c-3.412-5.332-7.484-10.008-12.321-14.445c0.944,6.102,3.592,12.688,6.13,18.088c-0.669,0.315-2.036-0.485-2.745-0.151
		c-3.738-7.513-5.669-15.451-6.488-23.848c4.886,4.366,9.606,8.74,13.709,14.06c1.45-9.983,5.224-18.927,9.294-27.97
		c2.941,9.793,5.587,19.435,5.569,29.89c4.923-5.194,10.52-9.069,16.306-13.094c-1.87,7.245-3.834,14.224-7.257,20.648
		c5.166-0.485,10.274-0.964,15.382-1.444c0.041,0.102,0.081,0.205,0.121,0.306c-5.883,5.685-11.873,11.23-19.484,15.127
		c2.276,2.101,4.46,4.118,6.645,6.135C84.407,63.424,84.297,63.553,84.186,63.682z"/>
</g>
</svg>
