<?xml version="1.0" encoding="utf-8"?>
<!-- Generator: Adobe Illustrator 17.0.0, SVG Export Plug-In . SVG Version: 6.00 Build 0)  -->
<!DOCTYPE svg PUBLIC "-//W3C//DTD SVG 1.1//EN" "http://www.w3.org/Graphics/SVG/1.1/DTD/svg11.dtd">
<svg version="1.1" id="Layer_1" xmlns="http://www.w3.org/2000/svg" xmlns:xlink="http://www.w3.org/1999/xlink" x="0px" y="0px"
	 width="100px" height="100px" viewBox="0 0 100 100" enable-background="new 0 0 100 100" xml:space="preserve">
<g id="Layer_2">
</g>
<g id="Layer_1_1_">
	<g>
		<path fill="#FF4848" d="M50.487,49.114c0.001-9.315,0.002-18.631,0.002-27.946c0-0.714-0.012-1.428-0.019-2.142
			c-0.163-0.34-0.081-0.703-0.082-1.054c-0.007-3.922-0.002-7.843-0.008-11.765c-0.001-0.352,0.074-0.713-0.077-1.056
			c0.096-0.236,0.192-0.472,0.332-0.818c2.287,4.377,4.181,8.792,5.62,13.396c1.667,5.333,2.749,10.759,2.446,16.388
			c-0.221,4.104-1.32,7.911-3.651,11.35c-2.338,3.448-3.493,7.296-3.592,11.46c0.189,0.167,0.201,0.395,0.223,0.624
			c0.021,0.223-0.041,0.452,0.095,0.773c1.508-1.513,3.063-2.925,4.45-4.488c2.161-2.436,4.582-4.61,6.808-6.977
			c3.742-3.978,7.714-7.732,11.463-11.698c2.949-3.12,6.044-6.089,9.026-9.172c0.971-1.004,1.828-2.113,2.859-3.062
			c0.313-0.288,0.613-0.58,1.01-0.749c0.464,0.152,0.21,0.5,0.142,0.716c-2.653,8.458-6.168,16.478-11.956,23.329
			c-2.093,2.477-4.508,4.58-7.317,6.216c-0.129,0.291-0.385,0.441-0.646,0.588c-1.658,0.892-3.423,1.48-5.267,1.834
			c-0.667,0.128-1.284,0.424-1.949,0.546c-0.333,0.022-0.63,0.161-0.929,0.294c-1.35,0.555-2.731,1.047-3.897,1.965
			c-0.613,0.527-1.373,0.852-1.958,1.418c-0.094,0.09-0.034-0.042-0.059,0.068c-0.04,0.171,0.121,0.006,0.176,0.058
			c0.478-0.008,0.951-0.036,1.415,0.089c5.616,0.168,11.231,0.073,16.846,0.045c0.126-0.001,0.251-0.064,0.377-0.097
			c3.833-0.134,7.667-0.023,11.5-0.062c0.518-0.005,1.042,0.055,1.546-0.123c2.289-0.105,4.578-0.138,6.866,0.041
			c0.688,0.273,0.192,0.439-0.069,0.566c-1.604,0.781-3.19,1.607-4.829,2.305c-4.981,2.122-10.116,3.678-15.556,4.059
			c-2.584,0.181-5.115-0.147-7.622-0.735c-0.411-0.126-0.861,0.005-1.264-0.185c-1.379-0.552-2.612-1.382-3.93-2.053
			c-1.73-1.17-3.612-1.946-5.697-2.191c-0.345,0.004-0.665-0.227-0.995-0.136c6.99,6.89,13.907,13.853,20.833,20.809
			c0.101,0.153,0.303,0.344,0.009,0.45c-0.155,0.056-0.379-0.044-0.561-0.104c-4.972-1.636-9.703-3.738-13.718-7.192
			c-2.581-2.22-4.436-4.877-5.115-8.299c-0.316-1.593-0.933-3.11-2.059-4.548c0,1.138-0.035,2.143,0.006,3.145
			c0.149,3.604,0.34,7.207,0.484,10.811c0.211,5.293,0.369,10.589,0.818,15.869c0.044,0.517,0.159,1.029,0.176,1.546
			c0.049,1.531-0.734,2.405-2.282,2.596c-0.199,0.025-0.303-0.065-0.317-0.263c-0.021-0.292-0.01-0.585-0.01-0.878
			c-0.001-14.802,0-29.604-0.005-44.406C50.575,49.883,50.667,49.486,50.487,49.114z"/>
		<path fill="#FF4848" d="M49.15,55.181c0.307,0.94-0.006,1.877,0.158,2.869c-0.599-0.114-0.794-0.482-1.057-0.743
			c-7.369-7.341-14.69-14.73-22.112-22.018c-4.22-4.144-8.385-8.343-12.61-12.482c-0.161-0.158-0.343-0.295-0.515-0.443
			c0.159-0.369,0.388-0.078,0.547-0.029c7.949,2.45,15.466,5.793,22.058,10.957c4.137,3.241,7.548,7.076,9.204,12.202
			c0.649,2.007,0.919,4.122,1.744,6.084c0.644,1.53,1.367,3.004,2.486,4.346C49.094,55.62,49.122,55.401,49.15,55.181z"/>
		<path fill="#FF4848" d="M46.567,57.901c0.703,0.256,1.22,0.78,2.068,1.363c-0.61,0-0.947,0-1.284,0
			c-12.836,0.003-25.672,0.004-38.508,0.015c-0.375,0-0.782-0.137-1.128,0.142c-0.343-0.462,0.193-0.423,0.337-0.499
			c4.152-2.189,8.482-3.929,13.028-5.121c3.739-0.98,7.531-1.41,11.394-1.144c0.328,0.09,0.656,0.07,0.986,0.012
			c1.684,0.885,3.433,1.566,5.349,1.744c0.114,0.011,0.221,0.106,0.33,0.163C41.501,55.94,43.911,57.194,46.567,57.901z"/>
		<path fill="#FF4848" d="M36.026,65.134c2.718-0.77,4.846-2.71,7.436-3.741c1.515-0.603,3.077-0.943,4.718-1.129
			c-0.082,0.442-0.424,0.619-0.665,0.861c-6.287,6.301-12.582,12.594-18.873,18.891c-0.298,0.298-0.579,0.612-0.869,0.918
			c-0.347-0.016-0.233-0.218-0.163-0.403c1.545-5.446,3.945-10.437,7.781-14.667C35.609,65.625,35.815,65.377,36.026,65.134z"/>
		<g>
			<path fill="#C93131" d="M49.15,55.181c-0.139-3.545-1.332-6.764-3.258-9.68c-2.353-3.563-3.439-7.476-3.591-11.681
				c-0.237-6.55,1.352-12.767,3.591-18.847c1.224-3.322,2.594-6.583,4.374-9.656c0.411,0.394,0.286,0.909,0.287,1.381
				c0.012,3.637,0.007,7.274,0.005,10.91c0,0.488-0.005,0.974,0.153,1.445c0.061,0.288,0.079,0.581,0.079,0.873
				c0.003,9.726,0.028,19.453-0.008,29.179c-0.046,0.52-0.026,1.041-0.026,1.561c-0.001,14.385-0.001,28.77-0.001,43.156
				c0,0.391,0,0.781-0.009,1.172c-0.016,0.695-0.286,1.06-1.037,0.822c-1.54-0.384-2.249-1.308-2.07-2.806
				c0.647-5.434,0.72-10.904,1.04-16.358c0.301-5.131,0.511-10.267,0.76-15.401c0.007-0.147,0.001-0.295,0.001-0.653
				c-1.052,1.403-1.571,2.839-1.819,4.322c-0.495,2.959-1.973,5.336-4.046,7.4c-2.804,2.792-6.17,4.748-9.723,6.404
				c-1.883,0.878-3.802,1.677-5.803,2.261c-0.092,0.044-0.179,0.039-0.262-0.021c-0.046-0.585,0.437-0.842,0.765-1.172
				c6.157-6.171,12.323-12.334,18.487-18.498c0.223-0.223,0.45-0.444,0.734-0.733c-2.754,0.332-5.19,1.24-7.405,2.738
				c-0.921,0.623-1.922,1.093-2.93,1.547c-0.441,0.199-0.903,0.382-1.413,0.286c-6.091,1.643-11.999,0.57-17.838-1.258
				c-3.634-1.137-7.13-2.624-10.474-4.455c0.391-0.596,1.02-0.445,1.564-0.45c2.766-0.024,5.531-0.011,8.297-0.011
				c9.696,0,19.393,0,29.089-0.003c0.286,0,0.581,0.066,0.884-0.062c-0.263-0.305-0.638-0.427-0.926-0.665
				c-1.895-1.689-4.248-2.436-6.601-3.18c-0.308-0.098-0.625-0.169-0.93-0.283c-1.977-0.327-3.898-0.824-5.649-1.844
				c-0.238-0.098-0.441-0.235-0.551-0.48c-5.162-2.95-8.886-7.315-11.97-12.279c-3.457-5.563-6.097-11.501-7.909-17.8
				c0.502,0.029,0.796,0.39,1.108,0.709c6.927,7.064,14.133,13.844,21.088,20.88c4.279,4.328,8.602,8.612,12.908,12.914
				c0.246,0.246,0.465,0.532,0.992,0.803C48.88,56.731,49.281,55.981,49.15,55.181z"/>
			<g>
				<path fill="#C93131" d="M87.392,22.179c-2.543,2.783-5.207,5.449-7.854,8.133c-4.499,4.561-8.993,9.127-13.474,13.705
					c-4.708,4.81-9.397,9.637-14.097,14.454c-0.106,0.109-0.234,0.195-0.509,0.421c0-0.766,0-1.364,0-1.963
					c2.242-2.368,3.471-5.29,4.036-8.398c1.075-5.916,4.279-10.45,8.685-14.273c5.723-4.965,12.391-8.279,19.423-10.924
					C84.837,22.87,86.04,22.27,87.392,22.179z"/>
				<path fill="#C93131" d="M53.41,59.439c-0.481-0.049-0.207-0.232-0.069-0.39c0.57-0.651,1.409-0.947,2.026-1.537
					c1.434-0.454,2.738-1.196,4.09-1.832c0.282-0.137,0.528-0.331,0.783-0.509c2.524-0.653,5.081-1.203,7.443-2.367
					c0.644-0.25,1.332,0.073,1.977-0.153c7.999,0.087,15.283,2.713,22.303,6.277c0.054,0.028,0.091,0.089,0.136,0.134
					c-0.17,0.134-0.371,0.104-0.563,0.1c-3.121-0.063-6.24,0.108-9.361,0.099c-7.839-0.022-15.677,0.145-23.516,0.087
					c-0.357-0.003-0.717-0.018-1.067,0.073C56.2,59.63,54.804,59.204,53.41,59.439z"/>
				<path fill="#C93131" d="M73.151,81.541c-0.456,0.137-0.582-0.294-0.795-0.507C66.158,74.869,59.97,68.693,53.789,62.51
					c-0.658-0.658-1.465-1.168-2.013-1.983c0.528-0.235,0.972,0.02,1.429,0.111c1.747,0.808,3.521,1.543,5.399,1.999
					c0.19,0.046,0.361,0.138,0.457,0.325c1.424,0.426,2.587,1.371,3.921,1.974c0.302,0.131,0.632,0.225,0.784,0.564
					C68.52,69.897,71.214,75.498,73.151,81.541z"/>
			</g>
		</g>
		<path fill="#C93131" d="M50.487,49.114c0.341,0.361,0.179,0.807,0.18,1.211c0.009,14.766,0.006,29.533,0.015,44.299
			c0,0.4-0.17,0.856,0.226,1.19c-0.399,0.189-0.799,0.251-1.199,0.003c0.84,0.099,0.745-0.479,0.744-1.009
			c-0.003-8.56-0.007-17.119-0.001-25.679C50.457,62.457,50.475,55.786,50.487,49.114z"/>
		<path fill="#FF4545" d="M57.511,59.263c0.324-0.334,0.739-0.186,1.111-0.186c11.159-0.011,22.318-0.012,33.478-0.014
			c0.066-0.014,0.126-0.001,0.18,0.039c-0.326,0.318-0.736,0.17-1.106,0.173c-1.905,0.016-3.81,0.007-5.715,0.006
			c-0.344,0.15-0.707,0.075-1.061,0.076c-3.808,0.006-7.618-0.079-11.422,0.025c-4.75,0.13-9.498,0.027-14.246,0.072
			C58.32,59.458,57.877,59.577,57.511,59.263z"/>
		<path fill="#FF4545" d="M50.304,5.152C50.567,5.335,50.5,5.614,50.5,5.864c-0.007,4.387-0.019,8.775-0.029,13.162
			c-0.326-0.327-0.178-0.741-0.18-1.115c-0.017-4.198-0.019-8.396-0.025-12.594C50.251,5.256,50.264,5.201,50.304,5.152z"/>
		<path fill="#FF4545" d="M27.612,80.531c0.055,0.134,0.109,0.269,0.163,0.403c0.091,0.017,0.183,0.034,0.275,0.051
			c-0.16,0.165-0.377,0.28-0.547,0.105C27.334,80.916,27.475,80.701,27.612,80.531z"/>
		<path fill="#FF4545" d="M57.511,59.263c9.316,0.006,18.632,0.012,27.948,0.018c-0.344,0.277-0.75,0.155-1.128,0.157
			c-3.996,0.021-7.992,0.029-11.988,0.041c-0.181,0.1-0.38,0.076-0.573,0.076c-5.403,0.001-10.806,0.001-16.209,0
			c-0.194,0-0.392,0.023-0.575-0.07c-0.525-0.015-1.05-0.03-1.576-0.046C54.763,59.063,56.146,59.369,57.511,59.263z"/>
		<path fill="#C93131" d="M54.985,59.485c5.786-0.002,11.572-0.004,17.357-0.006c-0.232,0.261-0.543,0.174-0.825,0.174
			c-5.235,0.004-10.47,0.004-15.705,0C55.53,59.653,55.22,59.739,54.985,59.485z"/>
	</g>
</g>
</svg>
