<?xml version="1.0" encoding="iso-8859-1"?>
<!-- Generator: Adobe Illustrator 17.0.0, SVG Export Plug-In . SVG Version: 6.00 Build 0)  -->
<!DOCTYPE svg PUBLIC "-//W3C//DTD SVG 1.1//EN" "http://www.w3.org/Graphics/SVG/1.1/DTD/svg11.dtd">
<svg version="1.1" id="Layer_1" xmlns="http://www.w3.org/2000/svg" xmlns:xlink="http://www.w3.org/1999/xlink" x="0px" y="0px"
	 width="100px" height="100px" viewBox="0 0 100 100" style="enable-background:new 0 0 100 100;" xml:space="preserve">
<g>
	<path d="M0.102,97.723C0.709,97.368,1.116,96.629,2,96.818c2.17,0.464,2.44-0.665,2.436-2.54
		C4.381,68.902,4.399,43.526,4.399,18.15c0-3.449,0.203-3.632,3.494-2.988c2.311,0.452,4.615,0.942,6.921,1.423
		c1.163,0.242,2.115,0.712,2.134,2.116c-0.174,1.51-1.264,1.614-2.413,1.508c-1.74-0.16-3.422-0.682-5.155-0.895
		c-0.352-0.024-0.702-0.018-1.042,0.09c-0.757,0.637-0.503,1.511-0.503,2.289C7.821,45.653,7.82,69.612,7.829,93.571
		c0.001,2.378,0.129,2.516,2.496,2.55c3.176,0.046,6.354,0.031,9.53,0.001c0.786-0.007,1.662,0.147,2.196-0.695
		c0.167-0.855,0.021-1.735,0.234-2.582c0.872-4.12,1.509-8.283,2.295-12.419c1.146-6.031,2.866-7.448,8.983-7.23
		c2.781,0.465,4.583,2.086,5.166,4.812c1.129,5.275,2.342,10.552,2.748,15.94c0.136,1.8,0.775,2.251,2.405,2.244
		c9.014-0.037,18.028-0.034,27.043-0.006c1.614,0.005,3.359-0.135,4.018,1.926c0.128,0.965-0.528,1.409-1.217,1.831
		c-23.807,0-47.614-0.028-71.42,0.053C0.417,100.002-0.284,99.578,0.102,97.723z"/>
	<path d="M77.324,56.8c3.166,0.023,6.336-0.034,9.498,0.092c2.766,0.11,6.282-1.216,8.104,0.579
		c1.922,1.894,0.606,5.467,0.635,8.293c0.099,9.585,0.082,19.173-0.003,28.758c-0.016,1.749,0.288,2.705,2.226,2.294
		c0.94-0.199,1.477,0.444,2.111,0.907c0.398,1.878-0.334,2.317-2.219,2.275c-6.354-0.144-12.713-0.055-19.07-0.055
		c-0.854-0.525-1.329-1.21-0.956-2.257c0.598-1.256,1.734-1.468,2.947-1.49c2.268-0.042,4.536-0.03,6.802-0.02
		c4.785,0.044,4.839,0.043,4.758-4.664c-0.03-1.785,0.459-3.63-0.403-5.353c-1.298-0.508-2.643-0.161-3.967-0.242
		c-0.272,0.008-0.539,0.008-0.81,0.006c-11.441-0.011-22.878,0.005-34.315-0.009c-1.1-0.001-2.219,0.128-3.288-0.28
		c-1.27-0.681-1.573-1.869-1.593-3.165c-0.065-4.18-0.065-8.362,0.001-12.542c0.018-1.13,0.217-2.213,1.402-2.772
		c1.074-0.361,2.19-0.234,3.29-0.239c12.168-0.051,24.337,0.088,36.505-0.085c0.986-0.014,2.283,0.325,2.779-0.827
		c0.623-1.446,0.493-3.044,0.068-4.561c-0.159-0.565-0.764-0.637-1.281-0.705c-0.806-0.106-1.622-0.003-2.431-0.103
		c-0.28-0.003-0.558-0.009-0.838-0.012c-6.785-0.027-13.569,0.001-20.353-0.014c-0.883-0.002-1.772,0.055-2.641-0.182
		c-1.026-0.446-1.641-1.159-1.516-2.35c0.464-1.425,1.619-1.774,2.926-1.826c1.821-0.072,3.644-0.059,5.467-0.015
		C73.223,56.327,75.349,55.736,77.324,56.8z"/>
	<path d="M19.67,19.179c1.338-1.381,3.207-1.324,4.88-1.786c1.624-0.448,2.144-1.606,1.304-3.055
		c-0.185-0.318-0.376-0.638-0.605-0.924c-2.739-3.404-1.735-5.296,2.044-8.13c1.012-0.759,2.245-0.626,3.359-0.065
		c0.653,0.329,1.252,0.768,1.864,1.175c2.421,1.612,3.451,1.208,3.976-1.606c0.352-1.881,0.762-3.713,2.641-4.733
		c1.626,0,3.253,0,4.879,0c1.838,1.029,2.371,2.781,2.685,4.702c0.465,2.839,1.51,3.25,3.959,1.637
		c3.4-2.239,4.401-2.195,6.903,0.308c2.419,2.42,2.524,3.456,0.642,6.332c-0.323,0.493-0.682,0.967-0.958,1.485
		c-0.744,1.393-0.257,2.323,1.161,2.833c0.413,0.149,0.851,0.274,1.286,0.307c4.924,0.369,4.738,3.315,4.228,7.427
		c-0.196,1.579-1.797,1.953-3.02,2.562c-3.635,1.688-3.634,1.687-1.65,5.296c0.247,0.45,0.493,0.902,0.648,1.399
		c0.152,0.549,0.142,1.097,0.008,1.646c-0.31,1.268-1.079,2.237-1.995,3.124c-2.312,2.239-3.998,2.421-6.95,0.716
		c-2.79-1.61-3.226-1.458-3.958,1.719c-0.484,2.099-1.368,3.737-3.655,4.223c-1.167,0.218-2.335,0.221-3.503,0.013
		c-2.153-0.466-3.2-1.921-3.635-3.986c-0.21-0.997-0.251-2.078-1.029-2.875c-0.501-0.398-1.015-0.435-1.547-0.051
		c-0.247,0.172,0.065-0.031-0.183,0.131c-4.895,3.198-7.73,2.358-10.171-3.01c-0.126-0.463-0.124-0.926-0.014-1.39
		c0.321-1.233,1.103-2.226,1.704-3.316c0.897-1.63,0.566-2.367-1.229-2.918c-0.491-0.151-1.006-0.21-1.5-0.353
		C18.462,26.921,17.137,22.359,19.67,19.179z"/>
	<path style="fill:#F4F4F4;" d="M77.761,98.176c0.282,0.589,0.563,1.178,0.845,1.766c-1.626,0-3.253,0-4.879,0
		c0.321-0.445,0.641-0.89,0.962-1.335C75.553,97.322,76.602,97.358,77.761,98.176z"/>
	<path style="fill:#BEBEBE;" d="M35.128,38.307c1.235,0.23,1.229,1.238,1.368,2.167c0.312,2.082,0.792,4.063,3.127,4.838
		c1.299,0.401,2.598,0.4,3.897,0c2.571-0.822,2.869-3.012,3.228-5.231c0.347-2.147,1.73-2.818,3.372-1.484
		c3.77,3.061,6.025,2.776,9.406-2.599c0.295-0.559,0.496-1.115-0.054-1.645c-0.581-0.917-1.152-1.84-1.745-2.75
		c-1.442-2.213-0.971-3.349,1.662-3.891c0.487-0.1,1.005-0.047,1.508-0.065c1.321,0.274,2.642,0.547,3.963,0.821
		c1.212,1.101,2.65,1.654,4.258,1.901c1.057,0.163,2.195,0.34,2.492,1.693c0.355,7.568,0.11,15.137,0.131,22.705
		c0.002,0.736-0.101,1.476-0.697,2.024c-1.838,0.025-3.68,0.126-5.514,0.047c-1.188-0.051-1.98,0.342-2.49,1.381
		c-0.99,0.815-2.072,0.652-3.174,0.307c-1.227-0.75-2.561-0.99-3.996-0.985c-7.416,0.025-14.831,0.019-22.247,0.005
		c-1.267-0.002-2.482,0.174-3.649,0.648c-0.642-0.075-0.428,0.452-0.426,0.714c0.024,3.36-0.078,6.719,0.026,10.07
		c0.665,0.502,1.392,0.934,1.837,1.671c-0.058,1.471,1.328,2.011,1.962,3.036c-1.177,0.047-2.406-0.109-3.519,0.181
		c-2.742,0.714-4.001,2.751-4.482,5.452c-0.811,4.558-1.72,9.099-2.588,13.647c-0.592,0.711-0.164,1.54-0.264,2.309
		c-0.005,0.037,0.054,0.115,0.088,0.118c0.067,0.006,0.137-0.027,0.205-0.044c0.476,0.822,0.782,1.497-0.69,1.486
		c-4.508-0.035-9.017-0.038-13.525,0.006c-1.016,0.01-1.307-0.415-1.23-1.319c0.025-0.294,0.003-0.591,0.003-0.887
		c0-24.782-0.008-49.564,0.051-74.346c0.001-0.569-1.066-2.563,1.236-1.648c-1.097,0.597-0.792,1.645-0.792,2.567
		c-0.01,24.618-0.005,49.236-0.008,73.425c-0.027-0.197,0.017-0.824,0.017-1.45C7.87,69.211,7.87,45.24,7.872,21.269
		c0-1.139-0.329-2.495,1.532-2.497c1.642,0.288,3.301,0.503,4.919,0.89c1.159,0.277,1.991,0.023,2.625-0.961
		c0.907,0.159,1.814,0.318,2.721,0.478c-0.914,1.812-0.683,3.752-0.464,5.631c0.157,1.339,1.176,2.156,2.507,2.48
		c0.998,0.242,2.012,0.425,2.998,0.709c1.631,0.47,2.017,1.492,1.164,2.958c-0.736,1.265-1.497,2.516-2.246,3.773
		c-0.412,0.411-0.406,0.815,0.021,1.211c0.507,1.075,1.235,1.97,2.09,2.799c2.322,2.254,3.419,2.373,6.177,0.582
		c0.61-0.396,1.258-0.733,1.889-1.098C34.251,38.175,34.673,38.501,35.128,38.307z"/>
	<path style="fill:#989898;" d="M71.044,56.793c0.017-8.424,0.033-16.849,0.05-25.273c1.686-0.7,3.222-0.71,4.397,0.953
		c-0.485,2.394-0.154,4.813-0.202,7.22c-0.076,3.867,0.023,7.737-0.024,11.605c0.022-5.77,0.019-11.54,0.027-17.31
		c0.001-0.504-0.124-1.035,0.204-1.5c1.465,0.461,1.096,1.741,1.111,2.736c0.07,4.511,0.056,9.023,0.016,13.534
		c-0.015,1.715,0.115,3.389,0.658,5.02c0.015,1.007,0.03,2.014,0.044,3.021C75.23,56.798,73.137,56.795,71.044,56.793z"/>
	<path style="fill:#040404;" d="M75.435,32.492c-1.378-0.635-2.836-0.908-4.341-0.972c-1.453-0.356-2.896-0.761-4.362-1.053
		c-1.148-0.228-1.809-0.804-1.872-1.997c0.551-0.932,1.286-1.26,2.405-1.019c3.309,0.712,6.641,1.319,9.958,1.996
		c1.069,0.218,1.63,0.875,1.627,2.033c-0.017,6.73-0.02,13.461,0.004,20.191c0.004,1.153-0.573,1.762-1.574,2.109
		c-1.289-0.426-1.487-1.409-1.479-2.621c0.036-5.519,0.03-11.038-0.002-16.557c-0.004-0.69,0.329-1.472-0.322-2.076L75.435,32.492z"
		/>
	<path style="fill:#E1E1E1;" d="M33.372,73.687c-1.91-0.194-2.624-1.255-2.248-3.106c0.007-0.865,0.806-1.082,1.273-1.572
		c0.745-1.936,0.186-3.946,0.355-5.912c0.087-1.007-0.182-2.096,0.702-2.912c0.958-0.529,2.007-0.367,3.023-0.369
		c6.315-0.016,12.63-0.003,18.945-0.014c0.876-0.002,1.764,0.115,2.615-0.181c0.804-0.265,1.229-1.082,2.001-1.397
		c1,0,2.001-0.001,3.001-0.001c0.063,0.705,0.562,1.164,0.951,1.685c0.324,0.428,0.795,0.305,1.219,0.305
		c7.133,0.005,14.265,0.006,21.398,0.004c0.298,0,0.585-0.037,0.859-0.157c0.147-0.002,0.293-0.005,0.44-0.007
		c0.933,2.437,1.432,4.854-0.338,7.164c-4.113-0.28-8.231-0.112-12.347-0.115c-8.384-0.004-16.768-0.086-25.151,0.044
		c-0.271,0.067-0.52,0.184-0.746,0.351c-0.746,0.511-0.907,1.239-0.902,2.105c0.026,4.481,0.034,8.963-0.006,13.444
		c-0.008,0.901,0.311,1.55,0.953,2.103c0.325,0.626,0.913,0.36,1.381,0.36c11.813,0.015,23.626,0.013,35.439,0.01
		c0.437,0,0.891,0.066,1.285-0.214c0.148,0,0.296-0.001,0.444-0.001c0.182,0.213,0.33,0.447,0.446,0.701
		c0.453,2.985,0.204,5.985,0.156,8.979c-0.012,0.754-0.261,1.447-1.051,1.78c-2.417,0.02-4.835,0.096-7.249,0.034
		c-1.166-0.03-1.979,0.309-2.46,1.377c-1.038,0.043-2.118-0.214-3.072,0.432c-0.132-1.759-1.352-1.799-2.7-1.796
		c-9.672,0.021-19.343,0.011-29.015,0.011c-0.734,0-1.467,0-2.273,0c0.766-5.073-1.174-9.724-1.73-14.548
		c-0.118-1.022-0.456-2.018-0.575-3.04C38.04,76.167,36.384,74.322,33.372,73.687z"/>
	<path style="fill:#8AAC66;" d="M34.658,96.732c-1.323,0.336-1.241-0.554-1.238-1.403c0.008-2.291-0.024-4.582,0.013-6.872
		c0.018-1.084-0.243-2.042-1.434-2.091c-1.33-0.055-1.666,0.978-1.67,2.122c-0.006,2.069,0.029,4.139-0.021,6.206
		c-0.017,0.689,0.409,1.696-0.398,2.003c-0.947,0.361-2.055,0.269-2.943-0.442c-0.959-0.768-1.237-1.772-1.011-2.967
		c0.81-4.269,1.584-8.545,2.409-12.811c0.674-3.486,1.001-3.718,4.529-3.554c0.758,0.706,0.906,1.671,1.082,2.612
		c0.705,3.777,1.461,7.547,2.033,11.343C36.317,92.92,36.921,95.208,34.658,96.732z"/>
	<path style="fill:#677A40;" d="M34.658,96.732c1.234-1.943,1.081-4.027,0.686-6.164c-0.84-4.543-1.635-9.095-2.449-13.643
		c1.434,0.044,2.083,0.978,2.317,2.215c0.898,4.753,1.833,9.501,2.575,14.279C38.159,95.81,37.164,96.696,34.658,96.732z"/>
	<path style="fill:#C3C3C3;" d="M9.404,18.772c-1.579,0.422-1.318,1.698-1.318,2.851c0,23.94,0,47.879,0,71.819c0,0.8,0,1.6,0,2.399
		c-0.117,0.007-0.234,0.014-0.351,0.021c-0.026-0.583-0.075-1.167-0.075-1.75C7.655,69.803,7.65,45.494,7.68,21.185
		c0.001-0.905-0.593-2.183,0.977-2.544C8.906,18.684,9.155,18.728,9.404,18.772z"/>
	<path style="fill:#C3C3C3;" d="M22.812,95.349c-1.121-0.792-0.286-1.913-0.473-2.862c-0.001-0.006,0.146-0.059,0.153-0.047
		c0.104,0.171,0.196,0.35,0.291,0.527C22.793,93.761,22.802,94.555,22.812,95.349z"/>
	<path style="fill:#7F9CEC;" d="M66.251,75.075c-0.158-0.761-0.649-1.197-1.368-1.413c-0.188-0.185-0.332-0.4-0.433-0.644
		c-0.148-0.797-0.251-1.582,0.575-2.113c2.601-0.219,5.226,0.278,7.816-0.262c0.147,0,0.295,0,0.442,0.001
		c0.746,0.843,0.687,1.885,0.693,2.9c0.012,2.038,0.047,4.077-0.023,6.114c-0.027,0.793-0.035,1.623-0.789,2.163
		c-2.162-0.297-4.375,0.273-6.517-0.382C66.025,79.347,66.763,77.172,66.251,75.075z"/>
	<path style="fill:#7F9CEC;" d="M80.85,74.633c-0.285-0.539-0.749-0.832-1.327-0.97c-0.13-0.231-0.194-0.48-0.195-0.745
		c-0.056-1.603,0.715-2.116,2.296-2.088c1.947,0.034,3.923,0.326,5.857-0.204c0.149,0,0.297,0,0.446,0
		c1.304,2.285,0.535,4.775,0.657,7.169c0.068,1.348,0.399,2.837-0.739,3.998c-1.231-0.035-2.464-0.055-3.697-0.058
		c-2.842-0.006-2.861-0.035-2.878-2.977c-0.006-1.017,0.026-2.035-0.031-3.05C81.18,75.324,81.063,74.961,80.85,74.633z"/>
	<path style="fill:#7F9CEC;" d="M51.623,81.717c-0.019-3.338-0.045-6.677-0.051-10.015c-0.001-0.394-0.176-0.898,0.415-1.084
		c2.085,0.709,4.303-0.21,6.388,0.52c0.896,3.312,0.707,6.638,0.128,9.968c-1.082,1.137-2.475,0.467-3.724,0.616
		c-0.791,0.094-1.602-0.008-2.402,0.057C52.117,81.859,51.866,81.838,51.623,81.717z"/>
	<path style="fill:#5D7EAC;" d="M51.623,81.717c0.13,0.009,0.26,0.008,0.39-0.003c2.038-0.57,4.167,0.216,6.2-0.421
		c0.001-3.402,0.002-6.804,0.003-10.206c-0.256-0.177-0.249-0.343,0.02-0.499c0.282,0.01,0.564,0.021,0.846,0.031
		c0.898,0.493,1.899,0.338,2.799,0.21c2-0.283,3.054,0.329,2.939,2.462c0.034,0.121,0.055,0.243,0.063,0.368
		c-0.771-0.013-1.218,0.542-1.728,0.988c-0.592,2.341-0.281,4.704-0.173,7.062c-3.108,0.91-6.295,0.315-9.442,0.456
		C52.916,82.196,52.07,82.647,51.623,81.717z"/>
	<path style="fill:#5C7DAB;" d="M79.549,73.256c-0.01,0.136-0.019,0.271-0.025,0.407c-0.743,0.006-1.19,0.491-1.62,1.003
		c-0.826,2.332-0.405,4.702-0.214,7.064c-3.579,0.892-7.217,0.328-10.828,0.413c-0.861,0.02-0.695-0.799-0.693-1.346
		c0.007-1.908,0.051-3.815,0.081-5.722c0.769,2.035,0.13,4.153,0.369,6.219c2.03,0.619,4.146-0.104,6.184,0.393
		c0.928-1.327,0.36-2.822,0.428-4.233c0.11-2.266,0.043-4.54,0.05-6.811c0.145-0.007,0.29-0.015,0.435-0.022
		c1.178,0.529,2.43,0.281,3.624,0.212c1.589-0.092,2.352,0.41,2.17,2.056C79.524,73.011,79.536,73.134,79.549,73.256z"/>
	<path style="fill:#BBBBBB;" d="M49.324,67.497c0.011-0.125,0.014-0.25,0.011-0.375c0.449-0.365,0.983-0.241,1.486-0.241
		c11.84-0.006,23.681-0.006,35.521-0.005c0.368,0,0.736-0.004,1.086,0.136c1.03-2.26,0.219-4.647,0.477-6.96
		c4.729-0.246,4.746-0.246,4.723,4.331c-0.019,3.593,0.388,3.072-3.023,3.079C76.178,67.489,62.751,67.488,49.324,67.497z"/>
	<path style="fill:#5C7DAB;" d="M80.85,74.633c0.146,0.155,0.293,0.31,0.439,0.465c0.407,1.669,0.164,3.365,0.168,5.046
		c0.003,1.05,0.344,1.407,1.4,1.408c1.532,0.001,3.082-0.246,4.601,0.164c0.96-1.488,0.326-3.132,0.418-4.697
		c0.125-2.124,0.043-4.261,0.05-6.392c0.142-0.002,0.285-0.004,0.427-0.006c0.234,0.2,0.51,0.24,0.81,0.253
		c3.188,0.141,3.184,0.144,3.191,3.425c0.005,2.484-0.023,4.968,0.018,7.451c-3.582,0.833-7.215,0.333-10.824,0.389
		c-0.831,0.013-0.701-0.793-0.704-1.352C80.833,78.735,80.846,76.684,80.85,74.633z"/>
	<path style="fill:#BEBEBE;" d="M87.469,96.764c0.903-2.246,0.271-4.59,0.423-6.884c0.091-1.375,0.033-2.76,0.042-4.141
		c4.192-0.68,4.192-0.68,4.191,3.41c0,1.915,0.005,3.83-0.007,5.745c-0.001,0.145-0.081,0.276,0.008,0.054
		c0.201-2.951-0.289-6.272,0.225-9.556c0.604,3.497,0.126,7.021,0.267,10.53c0.034,0.844-0.515,0.922-1.17,0.905
		C90.123,96.792,88.796,96.783,87.469,96.764z"/>
	<path style="fill:#EBEBEB;" d="M87.474,85.305c-0.585,0.666-1.371,0.421-2.078,0.422c-11.278,0.014-22.556,0.017-33.835-0.006
		c-0.75-0.002-1.66,0.368-2.191-0.572c11.818,0.019,23.636,0.037,35.454,0.062C85.707,85.213,86.591,85.272,87.474,85.305z"/>
	<path style="fill:#6182B2;" d="M92.373,81.749c-0.975-2.321-0.427-4.757-0.4-7.123c0.027-2.321-0.067-4.107-3.105-3.635
		c-0.148,0.023-0.341-0.241-0.514-0.371c4.289-0.301,4.346-0.3,4.267,3.92C92.576,76.943,92.985,79.366,92.373,81.749z"/>
	<path style="fill:#EBEBEB;" d="M87.466,60.059c-0.471,0.49-1.084,0.369-1.659,0.369c-6.677,0.005-13.354,0.008-20.031-0.004
		c-0.631-0.001-1.351,0.203-1.786-0.518C71.815,59.958,79.641,60.009,87.466,60.059z"/>
	<path style="fill:#C3C3C3;" d="M92.352,85.392c0,3.468,0,6.935,0,10.403c-0.147,0.004-0.294,0.008-0.44,0.013
		c0-2.397,0.001-4.793,0-7.19c-0.001-2.88-0.002-2.88-2.868-2.881c-0.37,0-0.739,0.002-1.108,0.003
		c-0.008-0.145-0.013-0.291-0.017-0.436C89.399,85.195,90.88,85.049,92.352,85.392z"/>
	<path style="fill:#83A1F4;" d="M87.481,70.626c-1.466,0.975-3.112,0.461-4.639,0.399c-1.806-0.074-3.031,0.242-3.294,2.232
		c0,0-0.066,0.05-0.066,0.05c-0.312-0.895-0.343-1.789,0.002-2.683C82.15,70.431,84.816,70.427,87.481,70.626z"/>
	<path style="fill:#6182B2;" d="M64.82,73.293c-0.225-2.224-1.727-2.364-3.493-2.232c-0.75,0.056-1.617,0.304-2.244-0.44
		c1.92-0.003,3.84-0.007,5.759-0.01c0.257,0.152,0.261,0.31,0.013,0.476C64.843,71.822,64.831,72.558,64.82,73.293z"/>
	<path style="fill:#83A1F4;" d="M64.854,71.087c-0.004-0.159-0.009-0.317-0.013-0.476c2.667-0.151,5.334-0.216,7.999,0.031
		C70.225,71.631,67.51,70.83,64.854,71.087z"/>
	<path style="fill:#6182B2;" d="M79.485,70.624c-0.001,0.894-0.001,1.789-0.002,2.683c-0.266-2.174-1.715-2.407-3.514-2.248
		c-0.749,0.066-1.623,0.308-2.252-0.439C75.64,70.622,77.563,70.623,79.485,70.624z"/>
	<path style="fill:#6182B2;" d="M77.69,81.73c-0.569-2.374-0.924-4.742,0.213-7.064C77.832,77.021,77.761,79.375,77.69,81.73z"/>
	<path style="fill:#6182B2;" d="M62.982,81.712c-0.479-2.367-0.748-4.729,0.173-7.062C63.097,77.004,63.039,79.358,62.982,81.712z"
		/>
	<path style="fill:#83A1F4;" d="M58.235,70.59c-0.007,0.166-0.013,0.332-0.02,0.499c-2.07-0.24-4.215,0.52-6.229-0.47
		C54.07,70.609,56.153,70.6,58.235,70.59z"/>
	<path style="fill:#5D7DAB;" d="M22.315,21.377c1.129-0.97,2.602-0.779,3.91-1.134c2.546-0.69,4.169-4.594,2.754-6.786
		c-0.4-0.62-0.763-1.272-1.224-1.845c-0.77-0.956-1.054-1.643,0.05-2.751c1.134-1.138,1.849-0.738,2.789-0.01
		c1.854,1.437,3.522,2.328,6.172,1.114c2.298-1.053,2.388-2.718,2.786-4.527c0.246-1.12,0.102-2.284,1.926-2.324
		c1.866-0.04,1.986,1.011,2.147,2.323c0.269,2.193,0.892,3.804,3.409,4.778c2.433,0.942,3.747-0.175,5.364-1.26
		c0.976-0.655,1.714-1.374,3.001-0.113c1.295,1.269,0.639,2.057-0.119,2.935c-1.685,1.954-2.278,3.832-0.82,6.336
		c0.713,1.224,1.351,1.92,2.682,2.206c1.252,0.269,2.646,0.105,3.711,1.05c-0.357,0.876-0.305,1.758-0.037,2.642
		c-1.171,0.869-2.618,0.757-3.939,1.073c-1.178,0.282-1.706,0.964-2.356,1.988c-1.679,2.647-0.799,4.695,0.966,6.691
		c1.006,1.137,0.778,1.938-0.322,2.89c-0.765,0.663-1.307,0.789-2.081,0.161c-0.514-0.417-1.09-0.757-1.642-1.125
		c-3.129-2.085-6.701-0.514-7.604,3.158c-0.32,1.302,0.378,3.575-2.395,3.374c-1.103-0.08-1.616-0.436-1.776-1.468
		c-0.102-0.654-0.243-1.302-0.381-1.949c-0.791-3.699-4.382-5.122-7.578-3.091c-1.254,0.797-2.472,2.75-4.19,0.457
		c-0.524-0.7-0.786-1.158-0.145-1.869c0.341-0.379,0.571-0.858,0.858-1.286c1.7-2.538,1.663-4.511-0.045-6.964
		c-0.443-0.636-1.085-0.672-1.7-0.889c-1.355-0.478-2.913-0.223-4.135-1.161C22.582,23.125,22.631,22.249,22.315,21.377z"/>
	<path style="fill:#C3C3C3;" d="M43.519,45.313c-1.23,0.954-2.605,0.334-3.921,0.356c-0.023,0-0.072-0.111-0.066-0.166
		c0.006-0.066,0.058-0.127,0.09-0.19C40.921,45.313,42.22,45.313,43.519,45.313z"/>
	<path style="fill:#6182B2;" d="M22.315,21.377c0.639,0.867,0.604,1.743,0.036,2.626C22.074,23.132,22.119,22.256,22.315,21.377z"/>
	<path style="fill:#6182B2;" d="M60.816,24.012c-0.595-0.889-0.624-1.771,0.037-2.642C61.095,22.254,61.142,23.136,60.816,24.012z"
		/>
	<path style="fill:#C3C3C3;" d="M59.472,34.354c0.953,0.517,0.603,1.078,0.054,1.645C59.508,35.451,59.49,34.902,59.472,34.354z"/>
	<path style="fill:#C3C3C3;" d="M23.649,35.94c-0.993-0.409-0.4-1.105-0.31-1.71c0.096,0.166,0.192,0.332,0.289,0.499
		C23.635,35.133,23.642,35.537,23.649,35.94z"/>
	<path style="fill:#C3C3C3;" d="M35.128,38.307c-0.474,0.493-0.916,0.487-1.322-0.083C34.295,37.479,34.698,38.098,35.128,38.307z"
		/>
	<path style="fill:#010101;" d="M32.442,69.742c-0.439,0.28-0.879,0.56-1.318,0.839c-0.76-0.231-1.31-0.707-1.659-1.42
		c-0.526-3.616-0.463-7.235-0.036-10.855c0.436-1.099,1.217-1.469,2.414-1.463c8.645,0.044,17.29,0.041,25.934,0.002
		c1.123-0.005,1.823,0.399,2.261,1.378c-0.001,0.751-0.586,1.173-0.963,1.712c-0.74,0.516-1.579,0.249-2.366,0.255
		c-7.755,0.055-15.511-0.053-23.264,0.063c-0.9,0.824-0.403,1.906-0.519,2.872C32.663,65.323,33.451,67.598,32.442,69.742z"/>
	<path style="fill:#C3C3C3;" d="M29.429,58.307c0.012,3.618,0.024,7.236,0.036,10.855c-0.168,0.174-0.483,0.207-0.483-0.001
		c0.001-3.64,0.041-7.279,0.08-10.919c0-0.018,0.123-0.058,0.18-0.046C29.309,58.209,29.367,58.268,29.429,58.307z"/>
	<path style="fill:#C3C3C3;" d="M18.367,23.917c0-0.83,0-1.659,0-2.489c0.072-0.002,0.145-0.004,0.217-0.006
		c0,0.844,0,1.688,0,2.532C18.511,23.942,18.439,23.93,18.367,23.917z"/>
	<path style="fill:#9C9C9C;" d="M75.477,32.525c0,6.63,0,13.26,0,19.89c-0.14,0-0.279,0.001-0.419,0.001
		c0-5.51-0.065-11.022,0.055-16.529c0.024-1.108-0.798-2.374,0.322-3.394C75.435,32.492,75.477,32.525,75.477,32.525z"/>
	<path style="fill:#E5E5E5;" d="M87.428,67.012c-11.591,0.018-23.182,0.034-34.772,0.055c-1.107,0.002-2.214,0.035-3.321,0.054
		c0.482-0.662,1.197-0.467,1.836-0.468c11.529-0.009,23.058-0.008,34.587-0.002C86.334,66.652,86.956,66.506,87.428,67.012z"/>
	<path style="fill:#EBEBEB;" d="M32.938,60.1c7.753-0.037,15.505-0.073,23.258-0.113c0.96-0.005,1.92-0.034,2.88-0.052
		c-0.611,0.81-1.493,0.48-2.258,0.482c-7.816,0.025-15.633,0.018-23.449,0.019C33.019,60.588,32.878,60.472,32.938,60.1z"/>
	<path style="fill:#E4E4E4;" d="M32.938,60.1c0.143,0.112,0.287,0.224,0.43,0.337c-0.001,2.479,0.018,4.959-0.014,7.437
		c-0.009,0.734,0.327,1.707-0.912,1.868c0.041-2.553,0.05-5.107,0.145-7.658C32.611,61.426,32.171,60.64,32.938,60.1z"/>
	<path style="fill:#83A1F4;" d="M72.804,81.687c-2.063-0.105-4.175,0.567-6.184-0.393C68.677,81.488,70.786,80.876,72.804,81.687z"
		/>
	<path style="fill:#83A1F4;" d="M87.459,81.716c-6.206,0.191-6.206,0.191-6.18-5.963c0.001-0.218,0.007-0.437,0.011-0.655
		c0.898,1.488,0.296,3.116,0.39,4.673c0.067,1.108,0.425,1.507,1.547,1.557C84.636,81.389,86.118,80.873,87.459,81.716z"/>
	<path style="fill:#83A1F4;" d="M58.213,81.294c-2.011,0.966-4.135,0.261-6.2,0.421C54.03,80.84,56.151,81.505,58.213,81.294z"/>
	<path style="fill:#AAC4FE;" d="M52.009,22.735c-0.014,5.688-4.634,10.54-10.336,10.477c-6.684-0.074-10.664-5.551-10.555-10.771
		c0.117-5.624,4.875-10.387,10.516-10.374C47.389,12.08,52.023,16.845,52.009,22.735z"/>
	<path style="fill:#000001;" d="M49.387,22.778c-0.033,4.276-3.465,7.705-7.751,7.744c-4.313,0.039-7.863-3.513-7.857-7.864
		c0.006-4.383,3.549-7.917,7.877-7.857C46.049,14.863,49.421,18.341,49.387,22.778z"/>
	<path style="fill:#7F9CEB;" d="M42.246,27.162l-0.207,0.075l-0.217-0.039c-0.599-0.009-1.159-0.486-1.786-0.146
		c-2.239-0.742-3.216-2.361-3.116-4.646c0.098-2.22,1.292-3.623,3.409-4.254c1.938-0.523,3.011,0.589,3.479,2.177
		C44.548,22.83,44.566,25.299,42.246,27.162z"/>
	<path style="fill:#5C7DAA;" d="M42.246,27.162c0.886-1.76,1.738-3.536,1.317-5.595c-0.367-1.796-0.964-3.408-3.233-3.416
		c2.694-0.685,5.324,0.829,5.865,3.375C46.812,24.432,45.201,26.731,42.246,27.162z"/>
	<path style="fill:#83A1F4;" d="M40.037,27.051c0.641-0.515,1.243-0.545,1.786,0.146C41.178,27.756,40.622,27.224,40.037,27.051z"/>
</g>
</svg>
