<?xml version="1.0" encoding="utf-8"?>
<!-- Generator: Adobe Illustrator 17.0.0, SVG Export Plug-In . SVG Version: 6.00 Build 0)  -->
<!DOCTYPE svg PUBLIC "-//W3C//DTD SVG 1.1//EN" "http://www.w3.org/Graphics/SVG/1.1/DTD/svg11.dtd">
<svg version="1.1" id="Layer_1" xmlns="http://www.w3.org/2000/svg" xmlns:xlink="http://www.w3.org/1999/xlink" x="0px" y="0px"
	 width="100px" height="100px" viewBox="0 0 100 100" enable-background="new 0 0 100 100" xml:space="preserve">
<g>
	<path fill="#273B7A" d="M90.36,43.298c0.111,0.17,0.129,0.35,0.054,0.539c-0.105,0.167-0.209,0.334-0.313,0.501
		c-1.22,0.906-2.641,0.615-3.987,0.619c-9.299,0.028-18.597,0.03-27.896,0.001c-1.931-0.006-3.791,0.214-5.547,1.023
		c-1.259,0.716-1.122,2.122-1.563,3.24c-0.096,0.295-0.245,0.562-0.428,0.811c-1.905,1.218-3.012,2.725-1.807,5.065
		c1.597,1.419,1.46,3.783,2.887,5.29c0.685,0.688,2.053,0.892,1.667,2.346c-0.53,0.727-1.329,0.916-2.142,1.105
		c-3.253,0.755-3.515,1.434-1.802,4.652c0.459,0.728,0.882,1.447,1.008,2.326c0.426,2.959-0.516,4.209-3.517,4.256
		c-5.818,0.091-11.639-0.014-17.458,0.04c-9.303,0.085-18.61-0.281-27.91,0.269c-0.418-0.089-0.777-0.288-1.079-0.59
		c2.142-9.288,5.369-18.26,7.899-27.436c0.366-1.326,0.797-2.634,1.198-3.95c1.505-1.937,3.671-1.403,5.616-1.407
		c23.24-0.046,46.479-0.037,69.719-0.014c1.472,0.001,2.985-0.17,4.373,0.564C89.704,42.758,90.047,43.008,90.36,43.298z"/>
	<path fill="#366695" d="M89.76,43.254c-26.712,0.05-53.425,0.101-80.137,0.151c-0.035-5.845-0.102-11.69-0.093-17.534
		c0.007-4.474,1.647-6.405,6.161-7.458c1.392,0.676,1.477,1.98,1.499,3.274c0.045,2.665,0.196,5.334-0.126,7.99
		c-0.057,0.358-0.109,0.722-0.149,1.08c-0.026,0.34-0.049,0.687-0.064,1.029c-0.09,1.47,0.136,2.87,0.997,4.107
		c1.073,0.981,2.398,0.729,3.64,0.734c6.447,0.026,12.894,0.018,19.341,0.01c4.568-0.005,4.688-0.121,5.317-4.716
		c0.004-0.36,0.02-0.718,0.039-1.078c0.863-3.946,0.584-7.925,0.349-11.909c0.104-0.394,0.305-0.725,0.596-1.006
		c0.332-0.237,0.694-0.404,1.086-0.507c5.659-0.468,11.341-1.4,16.857,0.879c5.373,0.041,10.755,0.296,16.115,0.05
		c3.643-0.167,6.501,0.873,8.826,3.598c0.094,0.525,0.191,1.056,0.287,1.586c-0.489,5.42-0.065,10.853-0.23,16.277
		C90.039,40.96,90.388,42.157,89.76,43.254z"/>
	<path fill="#61A1B2" d="M0.527,74.791c0.244-0.023,0.487-0.045,0.731-0.068c0.588-0.333,1.234-0.257,1.864-0.256
		c15.469,0.024,30.937-0.06,46.408,0.04c2.425,1.948,2.659,3.387,1.118,6.796c-1.421,1.505-3.303,1.251-5.08,1.259
		c-10.616,0.048-21.233,0.012-31.85,0.024c-5.916,0.007-6.125,0.218-6.009,6.08c0.025,1.27-0.118,2.588,0.803,3.658
		c1.545,1.08,3.292,1.373,5.114,1.373c10.436,0.002,20.872-0.008,31.308,0.012c1.483,0.003,2.909-0.553,4.402-0.368
		c0.405,0.058,0.775,0.208,1.116,0.434c1.377,1.556,1.36,3.269,0.554,5.069c-0.217,0.33-0.465,0.637-0.741,0.921
		c-0.211,0.003-0.423,0.006-0.634,0.009c-0.669-0.452-1.429-0.301-2.155-0.301c-14.992-0.008-29.983-0.007-44.975-0.003
		c-0.629,0-1.271-0.075-1.862,0.239c0,0-0.018,0.292-0.018,0.292c-1.003-2.342-0.498-4.809-0.454-7.2
		C0.278,86.797-0.377,80.776,0.527,74.791z"/>
	<path fill="#C1FAFE" d="M47.162,18.42c-0.085,0.207-0.083,0.413,0.007,0.619c0.293,4.056,0.573,8.111-0.158,12.154l-0.089-0.153
		c-0.794,1.097-1.976,1.092-3.141,1.096c-8.213,0.026-16.426,0.022-24.639,0.003c-1.163-0.003-2.34,0.01-3.211-0.978
		c-0.075-0.186-0.066-0.367,0.025-0.545c0.925-1.277,2.281-1.403,3.692-1.428c2.119-0.037,4.239,0.022,6.357-0.046
		c3.177-0.103,3.699-0.576,3.75-3.764c0.098-6.077-0.022-12.156,0.064-18.233c0.021-1.464-0.168-3.054,1.392-3.998
		c0.634-0.381,1.357-0.666,1.887-1.161c2.28-2.128,4.491-2.465,6.8-0.038c1.294,1.361,2.544,0.898,3.919-0.091
		c0.951-0.684,1.754-1.971,3.272-1.473c1.798,3.626,0.767,7.502,0.894,11.26C48.06,13.897,48.69,16.322,47.162,18.42z"/>
	<path fill="#FEFEFE" d="M31.211,3.145c-0.007,8.062-0.092,16.125,0.024,24.186c0.036,2.496-0.768,3.389-3.264,3.292
		c-3.999-0.156-8.009-0.022-12.014-0.01c-0.088-4.065-0.176-8.132-0.265-12.199c0-5.942,0-11.883,0-17.521
		c0.708-0.656,1.126-0.544,1.431-0.25c2.55,2.45,5.077,2.619,7.634,0.012c1.214-1.238,2.278-0.477,3.342,0.295
		C29.126,1.696,30.173,2.414,31.211,3.145z"/>
	<path fill="#121149" d="M53.259,62.726c-0.709-1.212-1.912-0.622-2.904-0.806c-0.855-1.409-0.197-2.957-0.398-4.422
		c-0.067-1.403,1.306-1.441,1.982-2.143c0.173-0.212,0.365-0.405,0.539-0.614c0.786-1.159,0.784-2.333,0.093-3.516
		c-0.181-0.185-0.341-0.388-0.516-0.576c-0.557-0.552-1.282-0.904-1.785-1.516c0.004-1.495,0.009-2.989,0.013-4.484
		c1.099-0.599,2.289-0.299,3.433-0.302c11.026-0.026,22.052-0.008,33.078-0.026c1.155-0.002,2.333,0.21,3.465-0.216
		c0,0,0.155-0.265,0.155-0.267c2.923,9.684,5.847,19.37,8.77,29.056c-0.203,1.543-1.146,2.175-2.619,2.175
		c-15.028,0.001-30.056,0.173-45.083-0.094c-0.324-0.006-0.604-0.184-0.891-0.306c-1.21-1.252-0.385-2.82-0.635-4.216
		c-0.103-1.779,1.924-1.711,2.482-2.916c0.844-1.216,0.691-2.614,0.728-3.977C53.193,63.281,53.224,63.003,53.259,62.726z"/>
	<path fill="#366695" d="M50.235,81.004c-0.172-2.058,0.511-4.206-0.644-6.159c0.33-0.283,0.711-0.408,1.143-0.375
		c15.518-0.012,31.036-0.004,46.555,0.001c0.828,0,1.695-0.243,2.468,0.283c0.402,8.133,0.21,16.269,0.1,24.404
		c-0.673,0.454-1.437,0.302-2.167,0.302c-15.07,0.008-30.14,0.008-45.21,0c-0.731,0-1.494,0.15-2.167-0.303
		c-0.031-1.697-0.062-3.394-0.092-5.091c1.112-1.444,2.715-0.982,4.137-0.987c10.931-0.043,21.863-0.009,32.794-0.038
		c1.45-0.004,3.004,0.321,4.224-0.848c1.966-3.551,1.821-6.686-0.47-9.168c-1.802-0.797-3.688-0.883-5.61-0.879
		c-10.051,0.021-20.102,0.017-30.152,0.001c-1.367-0.002-2.755,0.17-4.093-0.298C50.683,81.66,50.411,81.378,50.235,81.004z"/>
	<path fill="#0E0043" d="M99.756,74.754c-16.473-0.02-32.945-0.04-49.418-0.06c-0.208-0.11-0.28-0.226-0.217-0.347
		c0.064-0.124,0.129-0.186,0.197-0.186c14.947-0.006,29.893-0.011,44.84-0.019c1.467-0.001,3.021,0.268,4.027-1.247
		C99.375,73.514,99.566,74.134,99.756,74.754z"/>
	<path fill="#226797" d="M50.312,99.158c16.515,0,33.029,0,49.544,0c-0.206,0.885-0.941,0.72-1.526,0.719
		c-16.022-0.028-32.044-0.071-48.066-0.112C50.261,99.561,50.277,99.358,50.312,99.158z"/>
	<path fill="#56A4B5" d="M0.638,99.708c0.915-0.752,2.01-0.555,3.053-0.555c14.303-0.01,28.607-0.009,42.91-0.001
		c1.045,0.001,2.14-0.175,3.03,0.622C33.3,99.959,16.969,100.085,0.638,99.708z"/>
	<path fill="#226797" d="M89.76,43.254c0.003-5.438-0.005-10.877,0.019-16.315c0.005-1.152-0.243-2.363,0.525-3.404
		c0.019,6.588,0.038,13.176,0.056,19.764C90.159,43.306,89.959,43.291,89.76,43.254z"/>
	<path fill="#5F9FB0" d="M47.091,56.158c-0.025-0.94,0.041-1.893-0.092-2.816c-0.378-2.624,0.51-3.995,3.318-3.629
		c1.068-0.297,2.134-0.574,3.151,0.157l-0.121-0.097c0.706,2.142,0.703,4.283,0.001,6.425l0.119-0.102
		c-0.96,0.839-2.125,0.205-3.169,0.447C49.227,56.436,48.099,56.806,47.091,56.158z"/>
	<path fill="#BFF8FC" d="M34.469,49.809c0.195,0.037,0.375-0.001,0.539-0.115c1.915-0.274,3.83-0.558,5.719,0.157l-0.104-0.074
		c0.647,2.142,0.727,4.281-0.037,6.416l0.148-0.108c-2.139,0.629-4.274,0.747-6.404-0.04l0.003,0.164l0.163,0.002
		C33.712,54.08,33.777,51.946,34.469,49.809z"/>
	<path fill="#5D9BAE" d="M47.105,68.805c-0.008-0.105-0.019-0.209-0.024-0.314c-0.275-6.385-0.275-6.385,6.178-5.765
		c0,0,0.131-0.125,0.131-0.125c0.781,1.816,0.255,3.71,0.33,5.567c-0.777,1.527-2.231,1.069-3.483,1.205
		C49.201,69.143,47.998,69.841,47.105,68.805z"/>
	<path fill="#223175" d="M47.105,68.805c1.04,0.052,2.081,0.104,3.121,0.156c0.449,0.177,0.476,0.404,0.08,0.682
		c0.004,1.506,0.007,3.012,0.011,4.518c-0.014,0.179-0.007,0.357,0.021,0.533c-0.249,0.05-0.498,0.1-0.747,0.15
		c-16.111-0.04-32.222-0.081-48.333-0.121c1.122-0.879,2.442-0.566,3.686-0.568c13.567-0.02,27.134,0.015,40.701-0.054
		c1.39-0.007,3.296,0.89,3.952-1.494C50.23,70.308,48.327,69.809,47.105,68.805z"/>
	<path fill="#C1FAFE" d="M22.366,68.348c-1.085-6.044-0.418-6.715,5.587-5.624c1.165,1.678,0.557,3.529,0.515,5.325
		c-0.156,0.351-0.403,0.614-0.742,0.79C25.916,68.933,24.063,69.51,22.366,68.348z"/>
	<path fill="#100B46" d="M90.26,44.105c-1.125,0.894-2.451,0.528-3.689,0.53c-12.096,0.026-24.192,0.015-36.288,0.014
		c0.53-0.648,1.27-0.694,2.016-0.691C64.952,44.005,77.606,44.055,90.26,44.105z"/>
	<path fill="#223176" d="M47.091,56.158c1.072,0.032,2.144,0.063,3.217,0.095c0.251,0.131,0.333,0.259,0.247,0.385
		c-0.084,0.124-0.169,0.187-0.256,0.187c0.018,1.699,0.037,3.397,0.056,5.096c-0.613-0.507-0.839-1.232-0.689-1.936
		C50.138,57.76,48.716,56.908,47.091,56.158z"/>
	<path fill="#223176" d="M28.505,62.818c1.433,2.055,0.917,4.13,0.061,6.208c-0.214,0.239-0.454,0.269-0.719,0.09
		c-0.146-0.275-0.112-0.531,0.078-0.772l0.023-0.023C28.832,66.559,27.855,64.605,28.505,62.818z"/>
	<path fill="#223176" d="M27.793,68.926c0.258,0.033,0.517,0.066,0.775,0.099c-2.053,0.752-4.103,1.336-6.111-0.124
		C24.237,68.576,26.016,68.544,27.793,68.926z"/>
	<path fill="#233477" d="M34.394,62.109c2.086-1.26,4.192-1.136,6.309-0.087C38.618,63.377,36.514,63.288,34.394,62.109z"/>
	<path fill="#6689AB" d="M34.394,62.109c2.103-0.029,4.206-0.058,6.31-0.087c0.074,0.228,0.148,0.456,0.221,0.683
		c-0.101,0.129-0.203,0.259-0.303,0.389c-0.265,0.2-0.562,0.328-0.888,0.387c-1.452,0.119-2.905,0.117-4.359,0.003
		c-0.327-0.055-0.624-0.182-0.891-0.378c-0.101-0.129-0.202-0.258-0.302-0.388C34.252,62.515,34.323,62.312,34.394,62.109z"/>
	<path fill="#132570" d="M34.33,56.045c2.134,0.013,4.268,0.027,6.403,0.04C38.592,57.23,36.457,57.282,34.33,56.045z"/>
	<path fill="#233477" d="M40.586,56.193c0.012-2.138,0.025-4.276,0.037-6.415C41.744,51.922,41.795,54.061,40.586,56.193z"/>
	<path fill="#233476" d="M21.689,56.169c-1.11-2.122-1.117-4.244,0.004-6.364C22.977,51.927,22.982,54.048,21.689,56.169z"/>
	<path fill="#132570" d="M34.469,49.809c0.009,2.133,0.018,4.266,0.027,6.4C33.273,54.082,33.298,51.948,34.469,49.809z"/>
	<path fill="#223176" d="M28.536,49.803c1.093,2.125,1.152,4.243-0.042,6.352C27.274,54.029,27.231,51.912,28.536,49.803z"/>
	<path fill="#688AAC" d="M21.689,56.169c0.001-2.121,0.003-4.243,0.004-6.364c0.22-0.07,0.439-0.141,0.658-0.211
		c0.128,0.102,0.255,0.205,0.384,0.306c0.197,0.267,0.324,0.565,0.382,0.892c0.116,1.458,0.116,2.917,0.002,4.377
		c-0.055,0.329-0.181,0.626-0.377,0.895c-0.128,0.101-0.257,0.202-0.385,0.302C22.134,56.299,21.912,56.234,21.689,56.169z"/>
	<path fill="#223176" d="M40.702,68.949c-2.115,1.07-4.222,1.151-6.317-0.057C36.502,67.668,38.608,67.61,40.702,68.949z"/>
	<path fill="#7297B5" d="M40.702,68.949c-2.106-0.019-4.211-0.038-6.317-0.057c-0.026-0.214-0.089-0.416-0.188-0.607
		c0.1-0.13,0.199-0.26,0.298-0.391c0.262-0.203,0.557-0.334,0.881-0.395c1.449-0.123,2.899-0.121,4.35-0.004
		c0.327,0.057,0.622,0.187,0.887,0.387c0.099,0.13,0.197,0.261,0.295,0.392C40.84,68.499,40.771,68.724,40.702,68.949z"/>
	<path fill="#7297B5" d="M28.536,49.803c-0.014,2.117-0.028,4.235-0.042,6.352c-0.213,0.027-0.414,0.09-0.603,0.189
		c-0.129-0.1-0.258-0.2-0.388-0.299c-0.202-0.263-0.332-0.558-0.393-0.885c-0.123-1.455-0.12-2.91-0.004-4.367
		c0.056-0.328,0.184-0.624,0.382-0.891c0.129-0.1,0.258-0.199,0.387-0.298C28.095,49.672,28.316,49.737,28.536,49.803z"/>
	<path fill="#AEE1E9" d="M28.505,62.818c-0.433,1.809,0.391,3.747-0.558,5.503c0.002-1.866,0.004-3.731,0.006-5.597
		C28.141,62.736,28.325,62.767,28.505,62.818z"/>
	<path fill="#132570" d="M34.197,68.285c-0.751-1.854-0.735-3.71-0.016-5.568c0,0,0.193,0.091,0.193,0.091l0.121-0.177
		c1.506,1.908,1.5,3.815-0.003,5.721l-0.118-0.165L34.197,68.285z"/>
	<path fill="#AEE1E9" d="M27.793,68.926c-1.779-0.008-3.558-0.016-5.337-0.024c-0.049-0.181-0.079-0.366-0.09-0.554
		c1.853-0.001,3.706-0.003,5.559-0.004C27.919,68.547,27.875,68.741,27.793,68.926z"/>
	<path fill="#132570" d="M40.727,49.851c-1.906-0.052-3.812-0.105-5.719-0.157C36.937,48.893,38.85,48.704,40.727,49.851z"/>
	<path fill="#132570" d="M22.352,49.594c1.843-0.691,3.684-0.706,5.523,0.012c0,0-0.07,0.178-0.07,0.178l0.168,0.088
		c-1.906,1.583-3.812,1.592-5.717-0.002l0.169-0.095L22.352,49.594z"/>
	<path fill="#132570" d="M27.891,56.345c-1.842,0.757-3.687,0.736-5.534,0.02c0,0,0.081-0.188,0.081-0.188l-0.173-0.109
		c1.893-1.548,3.792-1.53,5.696-0.022l-0.167,0.118L27.891,56.345z"/>
	<path fill="#233477" d="M40.925,62.705c0.652,1.858,0.673,3.715-0.016,5.57c0,0-0.176-0.065-0.176-0.065l-0.108,0.155
		c-1.568-1.917-1.579-3.832,0.006-5.745l0.12,0.139L40.925,62.705z"/>
	<path fill="#070040" d="M53.468,49.87c-1.05-0.052-2.101-0.105-3.151-0.157c-0.048-0.191-0.063-0.384-0.047-0.58
		C51.374,49.214,52.575,48.867,53.468,49.87z"/>
	<path fill="#559BAE" d="M15.932,31.159c10.33-0.04,20.66-0.08,30.99-0.121c0.508,6.516,0.508,6.516-5.792,6.516
		c-7.278,0-14.557,0.013-21.835-0.013c-1.127-0.004-2.345,0.318-3.319-0.606c1.075-1.198,2.518-0.919,3.862-0.926
		c6.231-0.029,12.462-0.018,18.692-0.009c1.918,0.003,3.811-0.059,5.42-1.257c0.185-2.404-1.731-1.458-2.643-1.476
		c-6.743-0.13-13.49-0.048-20.235-0.078c-1.463-0.007-2.967,0.173-4.317-0.647c-0.297-0.21-0.573-0.443-0.828-0.701
		C15.927,31.614,15.929,31.387,15.932,31.159z"/>
	<path fill="#100B46" d="M84.056,25.421c0.026,2.98-0.033,5.965,0.107,8.939c0.099,2.101-0.733,2.777-2.77,2.754
		c-9.096-0.101-18.194-0.089-27.292-0.117c-0.24-0.378-0.203-0.727,0.109-1.046c1.194-1.188,2.734-0.979,4.19-0.992
		c6.338-0.056,12.676,0.007,19.013-0.034c4.22-0.027,4.48-0.335,4.629-4.501c0.06-1.663-0.332-3.443,0.962-4.871
		C83.322,25.242,83.672,25.198,84.056,25.421z"/>
	<path fill="#63A4B4" d="M15.925,31.842c0.195-0.005,0.39-0.007,0.585-0.007c1.565,2.764,4.05,3.206,6.975,3.142
		c6.205-0.136,12.416-0.066,18.625-0.027c1.58,0.01,3.196-0.066,4.336,1.37c-0.985,0.869-2.189,0.617-3.323,0.619
		c-9.05,0.012-18.1,0.001-27.149-0.003C15.958,35.238,15.942,33.54,15.925,31.842z"/>
	<path fill="#0E0043" d="M84.056,25.421c-0.22,0.001-0.44,0.003-0.66,0.004c-0.746,0.82-1.641,1.297-2.774,1.311
		c-8.227,0.1-16.454,0.185-24.681-0.05c-0.539-0.015-1.015-0.267-1.494-0.49c-0.355-0.229-0.685-0.488-0.992-0.779
		c0.483-0.786,1.282-0.629,1.992-0.63c8.872-0.013,17.744-0.013,26.617,0C82.775,24.788,83.572,24.638,84.056,25.421z"/>
	<path fill="#285B8E" d="M47.011,31.192c0.053-4.051,0.105-8.103,0.158-12.154C47.946,23.1,48.298,27.157,47.011,31.192z"/>
	<path fill="#0F0745" d="M53.455,25.417c0.216,0.002,0.431,0.004,0.647,0.006c1.937,2.826,1.936,8.067-0.002,10.891
		c0.001,0.228,0.001,0.455,0.002,0.683C52.542,33.213,53.668,29.278,53.455,25.417z"/>
	<path fill="#273B7A" d="M93.554,93.341c-1.047,1.075-2.393,0.667-3.617,0.671c-13.239,0.041-26.478,0.043-39.717,0.056
		c0,0-0.289-0.058-0.289-0.058l-0.294,0.009c-0.664,0.464-1.424,0.314-2.149,0.314c-12.971,0.008-25.943,0.016-38.914-0.019
		c-0.746-0.002-1.727,0.5-2.229-0.59c0.002-2.991,0.167-5.993-0.041-8.969c-0.192-2.745,0.607-3.685,3.508-3.645
		c12.203,0.167,24.41,0.076,36.615,0.063c1.27-0.001,2.539-0.109,3.809-0.168c0,0,0.059,0.292,0.059,0.292
		c0.4,0.38,0.758,0.79,0.937,1.327c0.656,1.696,0.28,3.474,0.396,5.213c0.08,1.216-0.159,2.522,0.989,3.422
		c1.834,0.993,3.8,1.175,5.834,1.17c10.017-0.025,20.034-0.018,30.051-0.005c1.365,0.002,2.744-0.139,4.091,0.235
		C92.945,92.839,93.265,93.067,93.554,93.341z"/>
	<path fill="#63A4B4" d="M6.345,93.723c12.948,0.045,25.897,0.085,38.845,0.141c1.483,0.006,2.965,0.1,4.447,0.153
		c-0.986,0.878-2.195,0.631-3.336,0.633c-12.158,0.013-24.317,0.019-36.475-0.007C8.615,94.64,7.235,95.054,6.345,93.723z"/>
	<path fill="#5D9BAD" d="M65.558,49.82c-0.001,2.103-0.002,4.207-0.003,6.31c-2.126,0.612-4.251,0.644-6.375-0.015l0.108,0.085
		c-0.682-2.143-0.665-4.286-0.008-6.43l-0.101,0.083C61.302,49.189,63.429,49.257,65.558,49.82z"/>
	<path fill="#5D9BAD" d="M71.941,56.13c-0.001-2.105-0.002-4.21-0.003-6.315c2.13-0.551,4.257-0.63,6.379,0.039l-0.094-0.086
		c0.648,2.146,0.658,4.291-0.005,6.436l0.098-0.089C76.192,56.775,74.067,56.742,71.941,56.13z"/>
	<path fill="#5D9AAD" d="M59.243,62.612c8.113-0.593,6.225-0.585,6.295,6.071c-1.748,1.352-3.723,0.417-5.59,0.561
		C58.08,67.209,58.869,64.888,59.243,62.612z"/>
	<path fill="#5B96AA" d="M78.26,68.367c-0.25,0.174-0.499,0.348-0.749,0.522c-1.869,0.603-3.73,0.903-5.549-0.166
		c-0.009-0.104-0.023-0.208-0.027-0.312c-0.264-6.612-0.264-6.612,6.326-5.802C78.822,64.528,78.822,66.448,78.26,68.367z"/>
	<path fill="#0E0143" d="M59.243,62.612c0.292,2.084-0.609,4.29,0.633,6.277c0.401,0.278,0.386,0.53-0.046,0.757
		C57.738,67.461,58.293,65.053,59.243,62.612z"/>
	<path fill="#100B46" d="M71.111,55.233c-0.372-1.676-0.71-3.111,0-5.039C71.111,52.241,71.111,53.737,71.111,55.233z"/>
	<path fill="#06003F" d="M59.18,56.116c2.125,0.005,4.25,0.01,6.375,0.015C63.428,57.217,61.303,57.228,59.18,56.116z"/>
	<path fill="#0E0143" d="M77.231,61.816c-1.409,0-2.818,0-4.227,0c-0.004-0.096-0.008-0.192-0.012-0.287c1.405,0,2.81,0,4.215,0
		C77.216,61.625,77.224,61.72,77.231,61.816z"/>
	<path fill="#06003F" d="M71.941,56.13c2.125-0.006,4.249-0.011,6.374-0.016C76.193,57.229,74.068,57.217,71.941,56.13z"/>
	<path fill="#100B46" d="M66.672,50.743c0,1.492,0,2.984,0,4.476c-0.102,0.001-0.204,0.001-0.306,0.002c0-1.492,0-2.984,0-4.476
		C66.468,50.744,66.57,50.743,66.672,50.743z"/>
	<path fill="#07003F" d="M78.218,56.204c0.001-2.145,0.003-4.29,0.005-6.436C79.333,51.914,79.338,54.059,78.218,56.204z"/>
	<path fill="#0E0043" d="M59.28,49.77c0.003,2.143,0.006,4.286,0.008,6.429C58.151,54.058,58.162,51.915,59.28,49.77z"/>
	<path fill="#0E0043" d="M53.349,56.199c-0.001-2.141-0.001-4.283-0.002-6.425C54.509,51.915,54.507,54.057,53.349,56.199z"/>
	<path fill="#07003F" d="M78.317,49.854c-2.126-0.013-4.253-0.026-6.379-0.039C74.07,48.782,76.197,48.736,78.317,49.854z"/>
	<path fill="#06003F" d="M65.558,49.82c-2.126,0.011-4.252,0.022-6.378,0.033C61.3,48.74,63.426,48.776,65.558,49.82z"/>
	<path fill="#0E0143" d="M71.962,68.723c1.85,0.055,3.7,0.111,5.55,0.166C75.62,70.235,73.775,70.013,71.962,68.723z"/>
	<path fill="#0E0043" d="M64.583,61.803c-1.209,0-2.419,0-4.004,0C62.063,60.946,63.292,61.577,64.583,61.803z"/>
	<path fill="#0E0143" d="M59.83,69.645c0.015-0.252,0.031-0.505,0.046-0.757c1.887-0.068,3.774-0.136,5.662-0.205
		C63.888,70.52,61.729,69.302,59.83,69.645z"/>
	<path fill="#0E0143" d="M53.397,68.354c-0.002-1.917-0.004-3.835-0.006-5.752c1.337,1.788,0.448,3.849,0.697,5.771
		C53.85,68.649,53.62,68.643,53.397,68.354z"/>
	<path fill="#100B46" d="M71.109,68.245c-0.609-2.115-0.481-3.385,0-4.666C71.109,64.844,71.109,66.109,71.109,68.245z"/>
	<path fill="#100B46" d="M66.332,67.387c0-1.22,0-2.44,0-3.659c0.09-0.012,0.181-0.025,0.271-0.037c0,1.191,0,2.382,0,3.572
		C66.513,67.304,66.423,67.346,66.332,67.387z"/>
	<path fill="#06013F" d="M78.26,68.367c0-1.919,0-3.838,0-5.758C79.311,64.528,79.311,66.448,78.26,68.367z"/>
	<path fill="#0E0143" d="M53.397,68.354c0.23,0.006,0.461,0.013,0.691,0.019c-0.869,1.607-2.395,1.23-3.782,1.27
		c-0.026-0.227-0.053-0.455-0.079-0.682C51.283,68.758,52.34,68.556,53.397,68.354z"/>
	<path fill="#070040" d="M50.299,56.824c-0.022-0.191-0.019-0.381,0.009-0.571c1.053-0.052,2.106-0.105,3.159-0.157
		C52.584,57.101,51.397,56.765,50.299,56.824z"/>
	<path fill="#0F0745" d="M50.291,82.467c0.001-0.391,0.002-0.781,0.003-1.172c14.223-0.002,28.446-0.003,42.669-0.005
		c0.095,0.446-0.029,0.817-0.371,1.116c-0.98,0.815-2.171,0.781-3.331,0.787c-11.871,0.067-23.743,0.036-35.614,0.019
		C52.479,83.211,51.304,83.194,50.291,82.467z"/>
	<path fill="#0D0042" d="M92.95,81.842c0.003-0.184,0.007-0.368,0.013-0.551c1.432,3.955,0.333,8.037,0.592,12.05
		c0,0-0.294,0.018-0.294,0.018l-0.294-0.02c-0.287-0.289-0.542-0.606-0.766-0.948C91.509,88.807,90.641,85.21,92.95,81.842z"/>
	<path fill="#C0F8FD" d="M40.631,62.619c-0.002,1.915-0.004,3.83-0.006,5.745c-0.202,0.004-0.399-0.025-0.591-0.088
		c-1.657-0.391-3.319-0.294-4.984-0.058c-0.188,0.038-0.374,0.083-0.558,0.134c0.001-1.907,0.002-3.814,0.003-5.721
		c0.183,0.045,0.367,0.087,0.551,0.125c1.668,0.241,3.335,0.331,4.997-0.054C40.234,62.633,40.429,62.605,40.631,62.619z"/>
	<path fill="#C6FEFE" d="M40.044,62.702c-1.657,0.836-3.324,0.783-4.997,0.054C36.713,62.738,38.379,62.72,40.044,62.702z"/>
	<path fill="#C0F8FD" d="M27.962,56.045c-1.899,0.007-3.798,0.015-5.696,0.022c0.032-0.195,0.073-0.387,0.122-0.578
		c0.26-1.678,0.329-3.355-0.042-5.028c-0.068-0.192-0.098-0.389-0.09-0.592c1.906,0.001,3.812,0.002,5.717,0.002
		c0.002,0.204-0.029,0.404-0.092,0.598c-0.389,1.668-0.293,3.341-0.058,5.016C27.863,55.674,27.909,55.861,27.962,56.045z"/>
	<path fill="#C6FEFE" d="M22.346,50.461c0.822,1.669,0.783,3.346,0.042,5.028C22.374,53.813,22.36,52.137,22.346,50.461z"/>
	<path fill="#C6FEFE" d="M35.051,68.218c1.67-0.723,3.332-0.784,4.984,0.058C38.373,68.257,36.712,68.238,35.051,68.218z"/>
	<path fill="#C6FEFE" d="M27.824,55.485c-0.718-1.681-0.779-3.353,0.058-5.016C27.863,52.142,27.844,53.813,27.824,55.485z"/>
	<path fill="#61A1B2" d="M46.446,36.32c-8.462-0.001-16.924,0-25.386-0.003c-4.525-0.001-4.525-0.004-4.549-4.482
		c8.466-0.002,16.932-0.005,25.399-0.004C46.439,31.831,46.439,31.834,46.446,36.32z"/>
	<path fill="#121149" d="M54.099,36.314c0.001-3.63,0.001-7.261,0.002-10.891c9.765,0,19.529,0.001,29.294,0.001
		c0.001,2.662-0.099,5.329,0.032,7.984c0.111,2.258-0.824,2.96-2.985,2.94C71.662,36.269,62.881,36.315,54.099,36.314z"/>
	<path fill="#121149" d="M92.95,81.842c0,3.63-0.001,7.26-0.001,10.89c-14.223,0.538-28.447,0.528-42.67,0.005
		c0.004-3.423,0.008-6.846,0.012-10.269c1.364-0.768,2.86-0.63,4.333-0.63C67.399,81.837,80.175,81.84,92.95,81.842z"/>
	<path fill="#100B46" d="M50.278,92.736c14.223-0.002,28.447-0.003,42.67-0.005c0.004,0.203,0.01,0.405,0.017,0.607
		c-13.338,0.019-26.675,0.041-40.013,0.05C52.021,93.389,51.021,93.566,50.278,92.736z"/>
</g>
</svg>
