<?xml version="1.0" encoding="utf-8"?>
<!-- Generator: Adobe Illustrator 17.0.0, SVG Export Plug-In . SVG Version: 6.00 Build 0)  -->
<!DOCTYPE svg PUBLIC "-//W3C//DTD SVG 1.1//EN" "http://www.w3.org/Graphics/SVG/1.1/DTD/svg11.dtd">
<svg version="1.1" id="Layer_1" xmlns="http://www.w3.org/2000/svg" xmlns:xlink="http://www.w3.org/1999/xlink" x="0px" y="0px"
	 width="100px" height="100px" viewBox="0 0 100 100" enable-background="new 0 0 100 100" xml:space="preserve">
<g>
	<path fill="#282828" d="M68.87,44.92c0.01,1.73,0,3.46,0,5.18v39.03c0,3.5-1.94,5.44-5.45,5.44H40.34
		c-3.18-0.01-5.21-2.02-5.21-5.19c-0.01-7.37,0-14.74,0-22.1V45.27c0-3.33,1.96-5.29,5.28-5.3c0.87,0,2.03,0.29,2.55-0.15
		c0.59-0.52,0.12-1.71,0.19-2.61c0.02-0.2-0.01-0.39,0.01-0.59c0.05-0.82,0.09-1.51-1.05-1.76c-0.87-0.2-1.32-1.06-1.34-1.98
		c-0.03-2.21-0.04-4.43,0-6.65c0.02-1.26,0.97-2.19,2.22-2.31c2.35-0.22,3.4-1.38,3.4-3.76c0-1.93-0.01-3.85,0.01-5.78
		c0.01-2.86,2.07-4.92,4.94-4.92c0.81,0,1.63-0.09,2.44,0.09c2.25,0.5,3.8,2.38,3.82,4.68c0.02,2.06,0,4.11,0.01,6.17
		c0.01,2.08,1.2,3.37,3.25,3.52c1.49,0.11,2.37,1.04,2.38,2.55c0.01,2.02,0.01,4.04,0,6.07c-0.01,1.37-0.54,2.14-1.85,2.52
		c-0.43,0.13-0.56,0.3-0.55,0.73c0.02,1.17,0.02,2.34,0,3.52c-0.02,0.49,0.11,0.7,0.64,0.67c0.82-0.04,1.63-0.01,2.45-0.01
		C66.79,39.99,68.85,42.05,68.87,44.92z"/>
</g>
<g>
	<path fill="#263238" d="M33.127,65.275c0-7.337-0.001-14.673,0-22.01c0-3.326,1.963-5.288,5.28-5.298
		c0.874-0.003,2.035,0.29,2.549-0.152c0.598-0.515,0.128-1.71,0.197-2.608c0.014-0.194-0.009-0.392,0.004-0.587
		c0.054-0.826,0.094-1.514-1.048-1.766c-0.868-0.192-1.322-1.057-1.337-1.973c-0.035-2.217-0.039-4.434-0.002-6.651
		c0.021-1.263,0.965-2.19,2.218-2.31c2.356-0.225,3.403-1.382,3.404-3.766c0.002-1.924-0.009-3.848,0.003-5.771
		c0.016-2.863,2.077-4.921,4.943-4.926c0.812-0.002,1.631-0.09,2.437,0.089c2.253,0.5,3.803,2.38,3.827,4.687
		c0.02,2.054-0.002,4.108,0.006,6.163c0.009,2.082,1.206,3.372,3.253,3.524c1.486,0.11,2.366,1.037,2.377,2.551
		c0.014,2.022,0.01,4.043,0.001,6.065c-0.007,1.371-0.542,2.147-1.845,2.528c-0.437,0.128-0.567,0.291-0.558,0.721
		c0.025,1.173,0.029,2.348-0.001,3.521c-0.013,0.496,0.118,0.701,0.65,0.674c0.813-0.04,1.63-0.015,2.445-0.009
		c2.86,0.021,4.916,2.075,4.939,4.947c0.014,1.728,0.003,3.456,0.003,5.184c0,13.011,0,26.02,0,39.031
		c0,3.501-1.937,5.431-5.448,5.431c-7.695,0-15.391,0.001-23.086,0c-3.173-0.001-5.205-2.019-5.207-5.182
		C33.125,80.014,33.127,72.644,33.127,65.275z"/>
	<path fill="#059B2F" d="M51.276,65.944c1.088,0.518,2.179,1.031,3.263,1.559c0.553,0.27,1.033,0.255,1.3-0.362
		c0.264-0.609-0.179-0.907-0.631-1.131c-0.81-0.402-1.638-0.772-2.62-1.231c0.664-0.312,1.176-0.543,1.68-0.789
		c1.941-0.95,3.404-2.396,4.34-4.337c0.278-0.577,0.587-0.824,1.251-0.8c1.531,0.054,3.065,0.042,4.595,0.005
		c0.611-0.014,0.771,0.208,0.77,0.791c-0.016,6.944-0.019,13.888,0.003,20.832c0.002,0.667-0.243,0.809-0.853,0.808
		c-9.585-0.015-19.169-0.018-28.754,0.004c-0.719,0.002-0.854-0.262-0.852-0.909c0.02-6.879,0.02-13.757-0.001-20.636
		c-0.002-0.67,0.171-0.913,0.871-0.891c1.563,0.048,3.129,0.019,4.694,0.012c0.375-0.002,0.684,0.02,0.873,0.44
		c1.211,2.681,3.311,4.378,6.284,5.433c-0.996,0.469-1.807,0.844-2.613,1.233c-0.485,0.234-0.995,0.507-0.718,1.169
		c0.289,0.689,0.821,0.601,1.386,0.323c1.053-0.517,2.116-1.014,3.174-1.519c0.105-0.068,0.198-0.055,0.281,0.037
		c0.35,0.859,0.117,1.759,0.181,2.637c0.019,0.102,0.066,0.19,0.142,0.261c0.449,0.53,0.898,0.53,1.348,0
		c0.077-0.071,0.124-0.157,0.144-0.261c0.064-0.879-0.171-1.778,0.178-2.638C51.077,65.888,51.172,65.876,51.276,65.944z"/>
	
		<linearGradient id="SVGID_1_" gradientUnits="userSpaceOnUse" x1="-253.9988" y1="104.0025" x2="-253.9988" y2="112.1603" gradientTransform="matrix(1 0 0 -1 304 195)">
		<stop  offset="0" style="stop-color:#5DFF2A"/>
		<stop  offset="1" style="stop-color:#6EFF3F"/>
	</linearGradient>
	<path fill="url(#SVGID_1_)" d="M65.31,87.59c-0.04,2.03-1.43,3.4-3.48,3.4c-7.88,0.01-15.76,0.01-23.65,0
		c-2.09,0-3.47-1.38-3.49-3.48c-0.02-1.27,0.04-2.55-0.02-3.82c-0.04-0.73,0.27-0.85,0.9-0.84c4.83,0.02,9.65,0.01,14.47,0.01
		c4.75,0,9.51,0.02,14.27-0.02c0.81-0.01,1.07,0.22,1.02,1.03C65.26,85.11,65.33,86.35,65.31,87.59z"/>
	
		<linearGradient id="SVGID_2_" gradientUnits="userSpaceOnUse" x1="-254" y1="137.6902" x2="-254" y2="155.4575" gradientTransform="matrix(1 0 0 -1 304 195)">
		<stop  offset="0" style="stop-color:#5DFF2A"/>
		<stop  offset="1" style="stop-color:#6EFF3F"/>
	</linearGradient>
	<path fill="url(#SVGID_2_)" d="M34.69,56.61c0.02-4.6-0.02-9.19,0.02-13.79c0.02-1.95,1.45-3.27,3.4-3.27
		c7.92-0.01,15.85-0.01,23.77,0c1.99,0,3.4,1.35,3.41,3.36c0.03,4.53,0,9.06,0.02,13.6c0,0.6-0.18,0.79-0.78,0.78
		c-1.43-0.04-2.86-0.04-4.3,0c-0.61,0.02-0.74-0.2-0.56-0.74c0.06-0.18,0.08-0.38,0.11-0.57c0.21-1.11-0.21-1.54-1.32-1.33
		c-1.83,0.35-3.55,1-5.22,2.14c-0.1-3.09-0.84-5.79-2.28-8.29c-0.68-1.2-1.24-1.2-1.92-0.01c-1.37,2.38-2.12,4.94-2.26,7.69
		c0,0.15-0.02,0.3-0.05,0.58c-1.59-1.03-3.22-1.72-4.99-2.06c-1.38-0.26-1.77,0.07-1.46,1.46c0.18,0.81,0.13,1.22-0.9,1.14
		c-1.33-0.1-2.67-0.04-4.01-0.02C34.88,57.29,34.69,57.13,34.69,56.61z"/>
	<path fill="#059B2F" d="M49.985,31.549c-2.804,0-5.609-0.02-8.413,0.012c-0.933,0.011-1.28-0.363-1.261-1.281
		c0.039-1.858,0.03-3.718,0.003-5.576c-0.013-0.879,0.362-1.218,1.234-1.216c5.642,0.018,11.283,0.018,16.925,0.001
		c0.887-0.003,1.222,0.375,1.21,1.24c-0.028,1.858-0.036,3.718,0.003,5.576c0.019,0.937-0.372,1.268-1.287,1.257
		C55.594,31.528,52.79,31.549,49.985,31.549z"/>
	<path fill="#A1FFB7" d="M55.195,21.881c-3.541,0-6.877,0-10.398,0c1.252-1.437,1.211-3.06,1.187-4.691
		c-0.025-1.595-0.019-3.189-0.002-4.784c0.02-1.907,1.325-3.261,3.217-3.35c0.552-0.026,1.108-0.031,1.659,0.002
		c1.841,0.109,3.133,1.458,3.154,3.313c0.02,1.757,0.037,3.515-0.005,5.271C53.972,19.132,54.087,20.561,55.195,21.881z"/>
	<path fill="#1AFF3A" d="M49.999,37.98c-2.119,0-4.239-0.039-6.356,0.02c-0.77,0.021-0.931-0.227-0.89-0.936
		c0.062-1.072,0.04-2.151,0.006-3.226c-0.017-0.525,0.094-0.747,0.687-0.744c4.368,0.024,8.737,0.019,13.105,0.004
		c0.48-0.002,0.708,0.09,0.69,0.64c-0.038,1.205-0.041,2.413,0.002,3.618c0.02,0.56-0.218,0.635-0.69,0.631
		C54.367,37.969,52.183,37.98,49.999,37.98z"/>
	<path fill="#23272F" d="M35.095,81.45c9.936,0,19.873,0,29.809,0c0,0.031,0,0.063,0,0.094c-9.95,0-19.9,0-29.85,0
		C35.067,81.513,35.081,81.481,35.095,81.45z"/>
	<path fill="#23272F" d="M34.467,80.96c0-7.262,0-14.524,0-21.786c0.031,0,0.063,0,0.095,0c0,7.275,0,14.551,0,21.827
		C34.53,80.987,34.499,80.973,34.467,80.96z"/>
	<path fill="#23272F" d="M65.392,80.961c0-7.263,0-14.524,0-21.787c0.032,0,0.063,0,0.094,0c0,7.274,0,14.55,0,21.824
		C65.455,80.986,65.423,80.974,65.392,80.961z"/>
	<path fill="#23272F" d="M64.952,58.66c-1.932,0-3.863,0-5.795,0c-0.001-0.024-0.001-0.048-0.002-0.072c1.932,0,3.863,0,5.795,0
		C64.95,58.612,64.951,58.637,64.952,58.66z"/>
	<path fill="#23272F" d="M40.849,58.664c-1.938,0-3.875,0-5.814,0c0-0.031,0-0.064,0-0.095c1.939,0,3.879,0,5.819,0
		C40.854,58.6,40.851,58.632,40.849,58.664z"/>
	<path fill="#1E2A31" d="M48.329,54.616c0.003,0.324,0.006,0.649,0.009,0.973c0.144,0.847,0.157,1.693-0.009,2.539
		C48.017,56.957,48.017,55.786,48.329,54.616z"/>
	<path fill="#1E2A31" d="M51.665,58.125c0-1.171-0.001-2.342-0.001-3.513C51.982,55.783,51.981,56.954,51.665,58.125z"/>
	<path fill="#376968" d="M49.325,68.88c-0.058,0.004-0.115,0.008-0.173,0.011c-0.351-0.953,0.077-1.967-0.227-2.924
		c-0.068-0.008-0.135-0.014-0.203-0.022c0.143-0.223,0.366-0.189,0.581-0.181c0.198,0.968,0.123,1.941,0.044,2.913
		C49.339,68.743,49.332,68.811,49.325,68.88z"/>
	<path fill="#376968" d="M51.276,65.944c-0.068,0.008-0.135,0.015-0.203,0.022c-0.304,0.957,0.123,1.971-0.227,2.924
		c-0.058-0.003-0.116-0.007-0.173-0.011c-0.007-0.068-0.014-0.136-0.021-0.204c-0.078-0.972-0.153-1.945,0.044-2.913
		C50.91,65.754,51.133,65.721,51.276,65.944z"/>
	<path fill="#23272F" d="M49.346,68.675c-0.014-0.971-0.03-1.942-0.044-2.913C49.663,66.728,49.594,67.7,49.346,68.675z"/>
	<path fill="#23272F" d="M50.696,65.762c-0.014,0.971-0.029,1.943-0.044,2.913C50.403,67.7,50.334,66.728,50.696,65.762z"/>
	<path fill="#364A43" d="M43.631,60.284c0.446,0.412,1.09,0.653,1.183,1.37C44.338,61.267,43.791,60.942,43.631,60.284z"/>
	<path fill="#354842" d="M54.989,61.656c0.383-0.477,0.7-1.03,1.367-1.177C55.971,60.953,55.652,61.505,54.989,61.656z"/>
	<path fill="#32473F" d="M51.858,62.435c-0.261,0.896,0.356,0.619,0.788,0.588c-0.288,0.286-0.675,0.563-1.01,0.292
		C51.275,63.024,51.629,62.697,51.858,62.435z"/>
	<path fill="#354A40" d="M50.873,52.057c-0.307-0.255-0.398-0.594-0.385-0.975C50.791,51.338,50.891,51.674,50.873,52.057z"/>
	<path fill="#374E42" d="M57.924,57.153c0.079-0.363-0.174-0.56-0.385-0.779C58.168,56.387,58.301,56.644,57.924,57.153z"/>
	<path fill="#364943" d="M48.136,62.432c-0.312-0.255-0.401-0.598-0.386-0.982C48.046,61.711,48.153,62.047,48.136,62.432z"/>
	<path fill="#364D41" d="M48.528,58.326c0.295,0.323,0.291,0.648,0.006,0.975C48.533,58.975,48.531,58.65,48.528,58.326z"/>
	<path fill="#50BFB4" d="M48.924,65.966c0.423,0.948,0.052,1.957,0.227,2.924C48.641,67.95,49.056,66.937,48.924,65.966z"/>
	<path fill="#50BFB4" d="M50.846,68.891c0.176-0.967-0.196-1.977,0.227-2.924C50.941,66.937,51.356,67.95,50.846,68.891z"/>
	<g>
		<path fill="#00C92B" d="M47.938,57.542c-0.016-0.361,0.083-2.762,0.253-3.112c0.41-1.33,0.59-2.73,1.23-3.99
			c0.15-0.32,0.21-0.79,0.6-0.75c0.44,0.04,0.54,0.48,0.51,0.9c0.18,0.34,0.24,0.72,0.42,1.06c0.45,0.87,0.55,1.86,0.86,2.77
			c0.16,1.27,0.16,2.54,0,3.82c-0.2,1.68-0.91,3.21-1.5,4.78c-0.06,0.14-0.12,0.26-0.28,0.27c-0.28,0.02-0.3-0.23-0.38-0.41
			c-0.51-1.09-0.9-2.22-1.24-3.37"/>
		<path fill="#00C92B" d="M43.091,60.579c-1.142-1.018-1.489-2.435-1.886-3.819c-0.082-0.285-0.041-0.56,0.431-0.457
			c2.184,0.475,4.053,1.514,5.371,3.312c0.42,0.572,0.383,1.478,0.556,2.231c0.171,0.343,0.23,0.73,0.42,1.065
			c0.103,0.311,0.605,0.545,0.328,0.907c-0.276,0.36-0.648-0.01-0.957-0.091c-1.131-0.295-2.097-0.907-2.977-1.661
			C44.048,61.482,43.441,61.141,43.091,60.579z"/>
		<path fill="#00C92B" d="M52.021,62.914c0.532-3.621,2.674-5.734,6.167-6.579c0.405,0.151,0.707,0.352,0.418,0.846
			c-0.15,1.401-1.097,2.425-1.702,3.61c-0.566,0.343-0.927,0.923-1.484,1.277c-0.728,0.7-1.457,1.399-2.544,1.485
			c-0.056,0.04-0.117,0.094-0.178,0.091c-0.295-0.017-0.59,0.414-0.838,0.108C51.663,63.508,51.931,63.193,52.021,62.914z"/>
	</g>
	<g id="Layer_1_1_">
		<g>
			<g>
				<path fill="#008409" d="M50.043,14.368c0-0.57,0-1.139,0-1.709c0-0.044-0.001-0.087-0.001-0.131
					c-0.01-0.021-0.005-0.043-0.005-0.064c0-0.24,0-0.48,0-0.719c0-0.022,0.005-0.044-0.005-0.065
					c0.006-0.014,0.012-0.029,0.02-0.05c0.14,0.268,0.256,0.538,0.344,0.819c0.102,0.326,0.168,0.658,0.15,1.002
					c-0.014,0.251-0.081,0.484-0.223,0.694c-0.143,0.211-0.214,0.446-0.22,0.701c0.012,0.01,0.012,0.024,0.014,0.038
					c0.001,0.014-0.003,0.028,0.006,0.047c0.092-0.093,0.187-0.179,0.272-0.274c0.132-0.149,0.28-0.282,0.416-0.427
					c0.229-0.243,0.472-0.473,0.701-0.715c0.18-0.191,0.37-0.372,0.552-0.561c0.059-0.061,0.112-0.129,0.175-0.187
					c0.019-0.018,0.037-0.035,0.062-0.046c0.028,0.009,0.013,0.031,0.009,0.044c-0.162,0.517-0.377,1.008-0.731,1.426
					c-0.128,0.151-0.276,0.28-0.447,0.38c-0.008,0.018-0.024,0.027-0.04,0.036c-0.101,0.055-0.209,0.09-0.322,0.112
					c-0.041,0.008-0.079,0.026-0.119,0.033c-0.02,0.001-0.039,0.01-0.057,0.018c-0.083,0.034-0.167,0.064-0.238,0.12
					c-0.037,0.032-0.084,0.052-0.12,0.087c-0.006,0.006-0.002-0.003-0.004,0.004c-0.002,0.01,0.007,0,0.011,0.004
					c0.029,0,0.058-0.002,0.087,0.005c0.343,0.01,0.687,0.004,1.03,0.003c0.008,0,0.015-0.004,0.023-0.006
					c0.234-0.008,0.469-0.001,0.703-0.004c0.032,0,0.064,0.003,0.095-0.008c0.14-0.006,0.28-0.008,0.42,0.003
					c0.042,0.017,0.012,0.027-0.004,0.035c-0.098,0.048-0.195,0.098-0.295,0.141c-0.305,0.13-0.619,0.225-0.951,0.248
					c-0.158,0.011-0.313-0.009-0.466-0.045c-0.025-0.008-0.053,0-0.077-0.011c-0.084-0.034-0.16-0.085-0.24-0.126
					c-0.106-0.072-0.221-0.119-0.348-0.134c-0.021,0-0.041-0.014-0.061-0.008c0.427,0.421,0.85,0.847,1.274,1.272
					c0.006,0.009,0.019,0.021,0.001,0.028c-0.009,0.003-0.023-0.003-0.034-0.006c-0.304-0.1-0.593-0.229-0.839-0.44
					c-0.158-0.136-0.271-0.298-0.313-0.507c-0.019-0.097-0.057-0.19-0.126-0.278c0,0.07-0.002,0.131,0,0.192
					c0.009,0.22,0.021,0.441,0.03,0.661c0.013,0.324,0.023,0.647,0.05,0.97c0.003,0.032,0.01,0.063,0.011,0.095
					c0.003,0.094-0.045,0.147-0.14,0.159c-0.012,0.002-0.019-0.004-0.019-0.016c-0.001-0.018-0.001-0.036-0.001-0.054
					c0-0.905,0-1.81,0-2.715C50.049,14.415,50.054,14.391,50.043,14.368z"/>
				<path fill="#008409" d="M49.962,14.739c0.019,0.057,0,0.115,0.01,0.175c-0.037-0.007-0.049-0.029-0.065-0.045
					c-0.451-0.449-0.898-0.901-1.352-1.346c-0.258-0.253-0.513-0.51-0.771-0.763c-0.01-0.01-0.021-0.018-0.031-0.027
					c0.01-0.023,0.024-0.005,0.033-0.002c0.486,0.15,0.946,0.354,1.349,0.67c0.253,0.198,0.462,0.433,0.563,0.746
					c0.04,0.123,0.056,0.252,0.107,0.372c0.039,0.094,0.084,0.184,0.152,0.266C49.958,14.766,49.96,14.752,49.962,14.739z"/>
				<path fill="#008409" d="M49.804,14.905c0.043,0.016,0.075,0.048,0.126,0.083c-0.037,0-0.058,0-0.079,0
					c-0.785,0-1.57,0-2.355,0.001c-0.023,0-0.048-0.008-0.069,0.009c-0.021-0.028,0.012-0.026,0.021-0.031
					c0.254-0.134,0.519-0.24,0.797-0.313c0.229-0.06,0.46-0.086,0.697-0.07c0.02,0.006,0.04,0.004,0.06,0.001
					c0.103,0.054,0.21,0.096,0.327,0.107c0.007,0.001,0.014,0.006,0.02,0.01C49.494,14.785,49.641,14.862,49.804,14.905z"/>
				<path fill="#008409" d="M49.159,15.347c0.166-0.047,0.296-0.166,0.455-0.229c0.093-0.037,0.188-0.058,0.288-0.069
					c-0.005,0.027-0.026,0.038-0.041,0.053c-0.384,0.385-0.769,0.77-1.154,1.155c-0.018,0.018-0.035,0.037-0.053,0.056
					c-0.021-0.001-0.014-0.013-0.01-0.025c0.094-0.333,0.241-0.638,0.476-0.897C49.134,15.377,49.146,15.362,49.159,15.347z"/>
			</g>
			<g>
				<path fill="#32C640" d="M49.962,14.739c-0.008-0.217-0.081-0.414-0.199-0.592c-0.144-0.218-0.21-0.457-0.22-0.714
					c-0.014-0.4,0.083-0.781,0.22-1.152c0.075-0.203,0.159-0.403,0.267-0.59c0.025,0.024,0.017,0.056,0.018,0.084
					c0.001,0.222,0,0.445,0,0.667c0,0.03,0,0.06,0.009,0.088c0.004,0.018,0.005,0.036,0.005,0.053c0,0.595,0.002,1.189,0,1.784
					c-0.003,0.032-0.002,0.064-0.002,0.095c0,0.88,0,1.759,0,2.639c0,0.024,0,0.048-0.001,0.072
					c-0.001,0.042-0.017,0.065-0.063,0.05c-0.094-0.023-0.138-0.08-0.127-0.172c0.04-0.332,0.044-0.667,0.064-1
					c0.018-0.314,0.031-0.628,0.046-0.942c0-0.009,0-0.018,0-0.04c-0.064,0.086-0.096,0.174-0.111,0.264
					c-0.03,0.181-0.121,0.326-0.247,0.452c-0.171,0.171-0.377,0.29-0.595,0.392c-0.115,0.054-0.232,0.103-0.355,0.138
					c-0.006,0.003-0.011,0.002-0.016-0.001c-0.003-0.036,0.027-0.051,0.047-0.072c0.376-0.377,0.753-0.754,1.13-1.131
					c0.014-0.014,0.028-0.027,0.045-0.045c-0.168,0.02-0.317,0.076-0.453,0.167c-0.056,0.038-0.118,0.067-0.179,0.095
					c-0.027,0.012-0.055,0.023-0.086,0.017c-0.372,0.1-0.734,0.035-1.091-0.077c-0.222-0.07-0.436-0.16-0.64-0.272
					c0.024-0.036,0.062-0.027,0.096-0.028c0.169-0.001,0.338-0.001,0.507-0.001c0.593,0,1.186,0,1.779,0
					c0.017,0,0.036,0.004,0.054-0.004c-0.016-0.019-0.039-0.026-0.057-0.041c-0.116-0.103-0.26-0.149-0.404-0.194
					c-0.019-0.006-0.038-0.01-0.057-0.017c-0.121-0.02-0.238-0.05-0.345-0.113c-0.015-0.006-0.027-0.014-0.034-0.029
					c-0.316-0.18-0.543-0.447-0.732-0.751c-0.211-0.34-0.373-0.703-0.484-1.088c0.031,0.002,0.049,0.024,0.068,0.043
					c0.424,0.432,0.864,0.846,1.289,1.277c0.262,0.265,0.526,0.527,0.789,0.79c0.015,0.015,0.028,0.033,0.061,0.049
					C49.945,14.834,49.97,14.788,49.962,14.739z"/>
				<g>
					<path fill="#32C640" d="M52.3,12.721c-0.155,0.17-0.318,0.333-0.48,0.497c-0.275,0.279-0.55,0.558-0.824,0.838
						c-0.288,0.294-0.575,0.589-0.862,0.884c-0.006,0.007-0.014,0.012-0.031,0.026c0-0.047,0-0.083,0-0.12
						c0.137-0.145,0.212-0.323,0.247-0.513c0.066-0.362,0.262-0.639,0.531-0.873c0.35-0.304,0.758-0.506,1.188-0.668
						C52.144,12.763,52.217,12.726,52.3,12.721z"/>
					<path fill="#32C640" d="M50.222,14.999c-0.029-0.003-0.013-0.014-0.004-0.024c0.035-0.04,0.086-0.058,0.124-0.094
						c0.088-0.028,0.167-0.073,0.25-0.112c0.017-0.008,0.032-0.02,0.048-0.031c0.154-0.04,0.311-0.074,0.455-0.145
						c0.039-0.015,0.081,0.004,0.121-0.009c0.489,0.005,0.934,0.166,1.364,0.384c0.003,0.002,0.006,0.005,0.008,0.008
						c-0.01,0.008-0.023,0.006-0.034,0.006c-0.191-0.004-0.382,0.007-0.572,0.006c-0.479-0.001-0.959,0.009-1.438,0.005
						c-0.022,0-0.044-0.001-0.065,0.004C50.393,15.011,50.307,14.985,50.222,14.999z"/>
					<path fill="#32C640" d="M51.429,16.351c-0.028,0.008-0.036-0.018-0.049-0.031c-0.379-0.377-0.757-0.755-1.135-1.133
						c-0.04-0.04-0.09-0.071-0.123-0.121c0.032-0.014,0.059,0.001,0.087,0.007c0.107,0.049,0.215,0.094,0.33,0.122
						c0.012,0.003,0.022,0.008,0.028,0.02c0.087,0.026,0.158,0.084,0.24,0.121c0.018,0.008,0.039,0.014,0.048,0.034
						C51.146,15.639,51.311,15.981,51.429,16.351z"/>
				</g>
			</g>
			<path fill="#FF4545" d="M48.645,16.289c0.003,0.008,0.007,0.016,0.01,0.025c0.006,0.001,0.011,0.002,0.017,0.003
				c-0.01,0.01-0.023,0.017-0.033,0.006C48.628,16.312,48.636,16.299,48.645,16.289z"/>
		</g>
	</g>
</g>
<path fill="#A6D617" stroke="#148230" stroke-width="0.25" stroke-miterlimit="10" d="M49.561,75.935L49.561,75.935
	C49.562,75.935,49.562,75.936,49.561,75.935c0.001,0.001-0.014,0.001-0.041,0.001C49.543,75.935,49.557,75.935,49.561,75.935z"/>
<path fill="#198131" stroke="#148230" stroke-width="0.25" stroke-miterlimit="10" d="M49.562,75.921
	c-0.01-2.276-2.352-2.183-2.416-2.18c-0.001,0-0.001,0-0.001,0c0.001,1.453,0.947,1.946,1.655,2.112
	c-0.417-0.089-0.925-0.274-1.306-0.655c-0.775-0.775-0.737-2.069-0.737-2.069s1.294-0.038,2.069,0.737
	C49.552,74.594,49.564,75.778,49.562,75.921z"/>
<path fill="#198131" stroke="#148230" stroke-width="0.25" stroke-miterlimit="10" d="M49.561,76.332
	c-0.004,0-0.018-0.001-0.041-0.001C49.548,76.33,49.562,76.331,49.561,76.332C49.562,76.331,49.562,76.331,49.561,76.332
	L49.561,76.332z"/>
<path fill="#198131" stroke="#148230" stroke-width="0.25" stroke-miterlimit="10" d="M48.825,78.399
	c-0.775,0.775-2.069,0.737-2.069,0.737s-0.038-1.294,0.737-2.069c0.385-0.385,0.898-0.569,1.316-0.658
	c-0.709,0.163-1.665,0.655-1.665,2.114c0,0,0,0,0.001,0c0.064,0.003,2.406,0.097,2.416-2.18
	C49.564,76.489,49.552,77.673,48.825,78.399z"/>
<path fill="#198131" stroke="#148230" stroke-width="0.25" stroke-miterlimit="10" d="M49.963,75.935
	c0.004,0,0.021,0.001,0.047,0.001C49.979,75.936,49.962,75.936,49.963,75.935C49.962,75.936,49.962,75.935,49.963,75.935
	L49.963,75.935z"/>
<path fill="#198131" stroke="#148230" stroke-width="0.25" stroke-miterlimit="10" d="M52.031,75.198
	c-0.384,0.384-0.895,0.568-1.313,0.657c0.709-0.164,1.661-0.656,1.661-2.113c0,0,0,0-0.001,0c-0.064-0.003-2.408-0.097-2.416,2.182
	c-0.001-0.132,0.006-1.325,0.738-2.057c0.775-0.775,2.069-0.737,2.069-0.737S52.806,74.423,52.031,75.198z"/>
<path fill="#198131" stroke="#148230" stroke-width="0.25" stroke-miterlimit="10" d="M49.963,76.332L49.963,76.332
	C49.962,76.331,49.962,76.331,49.963,76.332c-0.001-0.001,0.016-0.001,0.047-0.001C49.984,76.331,49.968,76.331,49.963,76.332z"/>
<path fill="#198131" stroke="#148230" stroke-width="0.25" stroke-miterlimit="10" d="M52.768,79.137c0,0-1.294,0.038-2.069-0.737
	c-0.731-0.731-0.739-1.924-0.738-2.057c0.008,2.279,2.352,2.185,2.416,2.182c0.001,0,0.001,0,0.001,0
	c-0.001-1.46-0.956-1.951-1.665-2.114c0.419,0.088,0.932,0.273,1.316,0.658C52.806,77.843,52.768,79.137,52.768,79.137z"/>
<path fill="#249A40" stroke="#148230" stroke-width="0.25" stroke-miterlimit="10" d="M49.562,76.342c0,0.001,0,0.002,0,0.003
	c-0.01,2.276-2.352,2.183-2.416,2.18c-0.001,0-0.001,0-0.001,0c0.001-1.46,0.956-1.951,1.665-2.114c0.002,0,0.003-0.001,0.005-0.001
	c0.324-0.068,0.591-0.078,0.697-0.079c0.003,0,0.006,0,0.008,0c0.027,0,0.042,0,0.042,0s0,0,0,0.001
	C49.562,76.333,49.562,76.337,49.562,76.342z"/>
<path fill="#249A40" stroke="#148230" stroke-width="0.25" stroke-miterlimit="10" d="M52.38,73.742
	c-0.001,1.457-0.953,1.949-1.661,2.113c-0.322,0.068-0.589,0.079-0.7,0.081c-0.003,0-0.005,0-0.008,0c-0.031,0-0.048,0-0.048,0
	s0,0,0-0.001c0-0.002,0-0.005,0-0.011c0.008-2.279,2.352-2.185,2.416-2.182C52.379,73.742,52.38,73.742,52.38,73.742z"/>
<path fill="#249A40" stroke="#148230" stroke-width="0.25" stroke-miterlimit="10" d="M52.38,78.525c0,0,0,0-0.001,0
	c-0.064,0.003-2.408,0.097-2.416-2.182c0-0.006,0-0.009,0-0.011c0-0.001,0-0.001,0-0.001s0.017-0.001,0.048,0
	c0.003,0,0.005,0,0.008,0c0.111,0.001,0.373,0.013,0.691,0.079c0.002,0,0.003,0.001,0.005,0.001
	C51.424,76.574,52.379,77.065,52.38,78.525z"/>
<polygon fill="#198131" stroke="#148230" stroke-width="0.25" stroke-miterlimit="10" points="47.008,78.792 47.007,78.793 
	47.007,78.792 "/>
<polygon fill="#A6D617" points="49.424,76.598 49.424,76.599 49.423,76.599 "/>
<g>
	<path fill="#198131" stroke="#148230" stroke-width="0.25" stroke-miterlimit="10" d="M49.962,75.924c0,0.006,0,0.009,0,0.011
		c0,0,0,0,0,0C49.962,75.931,49.962,75.927,49.962,75.924z"/>
	<path fill="#198131" stroke="#148230" stroke-width="0.25" stroke-miterlimit="10" d="M50.718,75.855
		c-0.318,0.074-0.587,0.082-0.7,0.081C50.13,75.934,50.396,75.923,50.718,75.855z"/>
	<path fill="#198131" stroke="#148230" stroke-width="0.25" stroke-miterlimit="10" d="M48.804,75.855
		c0.329,0.07,0.6,0.08,0.708,0.081C49.404,75.937,49.129,75.93,48.804,75.855z"/>
	<path fill="#198131" stroke="#148230" stroke-width="0.25" stroke-miterlimit="10" d="M49.562,75.935
		C49.562,75.935,49.562,75.935,49.562,75.935c0-0.002,0-0.005,0-0.011C49.562,75.928,49.562,75.931,49.562,75.935z"/>
	<path fill="#198131" stroke="#148230" stroke-width="0.25" stroke-miterlimit="10" d="M49.962,76.332
		C49.962,76.332,49.962,76.332,49.962,76.332c0,0.002,0,0.005,0,0.011C49.962,76.339,49.962,76.335,49.962,76.332z"/>
	<path fill="#198131" stroke="#148230" stroke-width="0.25" stroke-miterlimit="10" d="M50.71,76.41
		c-0.318-0.066-0.581-0.077-0.691-0.079C50.13,76.33,50.395,76.338,50.71,76.41z"/>
	<path fill="#198131" stroke="#148230" stroke-width="0.25" stroke-miterlimit="10" d="M49.512,76.331
		c-0.107,0.001-0.373,0.011-0.697,0.079C49.135,76.336,49.404,76.33,49.512,76.331z"/>
	<path fill="#198131" stroke="#148230" stroke-width="0.25" stroke-miterlimit="10" d="M49.562,76.332c0,0.003,0,0.007,0,0.011
		C49.562,76.337,49.562,76.333,49.562,76.332C49.562,76.332,49.562,76.332,49.562,76.332z"/>
</g>
<g>
	<path fill="#198131" stroke="#148230" stroke-width="0.25" stroke-miterlimit="10" d="M49.298,77.562l-0.001,0.827l0.129,0
		l0.001-0.504l0.673,0.001l-0.001,0.504l0.129,0l0.001-0.827L49.298,77.562z M50.098,79.067l-0.001,0.504l-0.673-0.001l0.001-0.504
		l-0.129,0l-0.001,0.827l0.93,0.001l0.001-0.827L50.098,79.067z"/>
	<polygon fill="#198131" stroke="#148230" stroke-width="0.25" stroke-miterlimit="10" points="48.925,78.388 48.924,79.065 
		49.425,79.066 49.425,79.196 48.603,79.194 48.604,78.258 49.426,78.259 49.426,78.389 	"/>
	<polygon fill="#198131" stroke="#148230" stroke-width="0.25" stroke-miterlimit="10" points="50.921,78.261 50.919,79.198 
		50.098,79.196 50.098,79.067 50.599,79.068 50.6,78.39 50.099,78.39 50.099,78.26 	"/>
</g>
<circle fill="#249A40" stroke="#20913B" stroke-width="0.25" stroke-miterlimit="10" cx="49.762" cy="76.127" r="0.107"/>
</svg>
